<svg xmlns="http://www.w3.org/2000/svg" width="500" height="500" viewBox="0 0 500 500" version="1.1"><path d="M 233.250 30.689 C 234.213 30.941, 235.787 30.941, 236.750 30.689 C 237.713 30.438, 236.925 30.232, 235 30.232 C 233.075 30.232, 232.287 30.438, 233.250 30.689 M 263.250 30.689 C 264.212 30.941, 265.788 30.941, 266.750 30.689 C 267.712 30.438, 266.925 30.232, 265 30.232 C 263.075 30.232, 262.288 30.438, 263.250 30.689 M 271.250 31.689 C 272.212 31.941, 273.788 31.941, 274.750 31.689 C 275.712 31.438, 274.925 31.232, 273 31.232 C 271.075 31.232, 270.288 31.438, 271.250 31.689 M 242.299 40.745 C 247.139 40.929, 254.789 40.928, 259.299 40.743 C 263.810 40.558, 259.850 40.408, 250.500 40.409 C 241.150 40.410, 237.460 40.562, 242.299 40.745 M 217.250 42.689 C 218.213 42.941, 219.787 42.941, 220.750 42.689 C 221.713 42.438, 220.925 42.232, 219 42.232 C 217.075 42.232, 216.287 42.438, 217.250 42.689 M 160 48.500 C 158.625 49.286, 157.950 49.929, 158.500 49.929 C 159.050 49.929, 160.625 49.286, 162 48.500 C 163.375 47.714, 164.050 47.071, 163.500 47.071 C 162.950 47.071, 161.375 47.714, 160 48.500 M 359.500 59.518 C 360.600 60.414, 362.400 61.588, 363.500 62.128 L 365.500 63.110 363.500 61.482 C 362.400 60.586, 360.600 59.412, 359.500 58.872 L 357.500 57.890 359.500 59.518 M 126.500 79.588 L 123.500 82.165 126.750 80.015 C 128.537 78.832, 130 77.669, 130 77.432 C 130 76.683, 129.577 76.944, 126.500 79.588 M 341 80.391 C 341 80.605, 342.543 80.961, 344.430 81.182 C 346.316 81.402, 347.640 81.226, 347.371 80.791 C 346.887 80.008, 341 79.638, 341 80.391 M 394.958 85.250 C 399.102 89.665, 400 90.459, 400 89.708 C 400 89.548, 397.863 87.410, 395.250 84.958 L 390.500 80.500 394.958 85.250 M 140.571 95.571 C 140.204 97.037, 140.096 98.429, 140.331 98.665 C 140.567 98.900, 141.061 97.894, 141.429 96.429 C 141.796 94.963, 141.904 93.571, 141.669 93.335 C 141.433 93.100, 140.939 94.106, 140.571 95.571 M 397.500 102 C 402.427 106.950, 406.683 111, 406.958 111 C 407.233 111, 403.427 106.950, 398.500 102 C 393.573 97.050, 389.317 93, 389.042 93 C 388.767 93, 392.573 97.050, 397.500 102 M 265.762 96.707 C 267.006 96.946, 268.806 96.937, 269.762 96.687 C 270.718 96.437, 269.700 96.241, 267.500 96.252 C 265.300 96.263, 264.518 96.468, 265.762 96.707 M 410.500 101 C 412.648 103.200, 414.631 105, 414.906 105 C 415.181 105, 413.648 103.200, 411.500 101 C 409.352 98.800, 407.369 97, 407.094 97 C 406.819 97, 408.352 98.800, 410.500 101 M 204.500 100 C 203.239 100.542, 203.055 100.859, 204 100.859 C 204.825 100.859, 206.400 100.473, 207.500 100 C 208.761 99.458, 208.945 99.141, 208 99.141 C 207.175 99.141, 205.600 99.527, 204.500 100 M 139.360 112 C 139.360 117.225, 139.529 119.362, 139.735 116.750 C 139.941 114.138, 139.941 109.862, 139.735 107.250 C 139.529 104.638, 139.360 106.775, 139.360 112 M 81 125 C 79.825 126.650, 79.089 128, 79.364 128 C 79.639 128, 80.825 126.650, 82 125 C 83.175 123.350, 83.911 122, 83.636 122 C 83.361 122, 82.175 123.350, 81 125 M 72.535 137.587 C 71.603 139.009, 71.012 140.346, 71.223 140.556 C 71.433 140.766, 72.394 139.602, 73.359 137.969 C 75.514 134.321, 74.871 134.022, 72.535 137.587 M 208.750 167.706 C 209.988 167.944, 212.012 167.944, 213.250 167.706 C 214.488 167.467, 213.475 167.272, 211 167.272 C 208.525 167.272, 207.512 167.467, 208.750 167.706 M 286.750 167.706 C 287.988 167.944, 290.012 167.944, 291.250 167.706 C 292.488 167.467, 291.475 167.272, 289 167.272 C 286.525 167.272, 285.512 167.467, 286.750 167.706 M 303.250 167.689 C 304.212 167.941, 305.788 167.941, 306.750 167.689 C 307.712 167.438, 306.925 167.232, 305 167.232 C 303.075 167.232, 302.288 167.438, 303.250 167.689 M 229.264 169.718 C 230.784 169.947, 233.034 169.941, 234.264 169.704 C 235.494 169.467, 234.250 169.279, 231.500 169.286 C 228.750 169.294, 227.744 169.488, 229.264 169.718 M 266.750 169.706 C 267.988 169.944, 270.012 169.944, 271.250 169.706 C 272.488 169.467, 271.475 169.272, 269 169.272 C 266.525 169.272, 265.512 169.467, 266.750 169.706 M 327 178.500 C 328.866 180.425, 330.617 182, 330.892 182 C 331.167 182, 329.866 180.425, 328 178.500 C 326.134 176.575, 324.383 175, 324.108 175 C 323.833 175, 325.134 176.575, 327 178.500 M 372.385 191 C 372.385 197.875, 372.545 200.688, 372.740 197.250 C 372.936 193.813, 372.936 188.188, 372.740 184.750 C 372.545 181.313, 372.385 184.125, 372.385 191 M 121.336 190 C 121.336 194.125, 121.513 195.813, 121.728 193.750 C 121.944 191.688, 121.944 188.313, 121.728 186.250 C 121.513 184.188, 121.336 185.875, 121.336 190 M 180.343 211.500 C 180.346 215.900, 180.522 217.576, 180.733 215.224 C 180.945 212.872, 180.942 209.272, 180.727 207.224 C 180.512 205.176, 180.339 207.100, 180.343 211.500 M 281.328 211.500 C 281.333 215.350, 281.513 216.802, 281.730 214.728 C 281.946 212.653, 281.943 209.503, 281.722 207.728 C 281.501 205.952, 281.324 207.650, 281.328 211.500 M 209.683 207.385 C 209.372 208.194, 207.854 209.046, 206.309 209.278 L 203.500 209.700 206.128 209.850 C 208.601 209.991, 211.897 207.563, 210.766 206.433 C 210.481 206.147, 209.993 206.576, 209.683 207.385 M 310 207.500 C 308.486 209.324, 304.907 209.452, 302.998 207.750 C 301.806 206.687, 301.794 206.761, 302.921 208.250 C 304.687 210.585, 308.268 210.467, 310.500 208 C 311.495 206.900, 312.070 206, 311.777 206 C 311.485 206, 310.685 206.675, 310 207.500 M 340.365 215.500 C 340.368 221, 340.536 223.122, 340.738 220.216 C 340.941 217.311, 340.939 212.811, 340.734 210.216 C 340.528 207.622, 340.363 210, 340.365 215.500 M 155.360 216 C 155.360 221.225, 155.529 223.363, 155.735 220.750 C 155.941 218.137, 155.941 213.863, 155.735 211.250 C 155.529 208.637, 155.360 210.775, 155.360 216 M 217.252 214.500 C 217.263 216.700, 217.468 217.482, 217.707 216.238 C 217.946 214.994, 217.937 213.194, 217.687 212.238 C 217.437 211.282, 217.241 212.300, 217.252 214.500 M 44.232 221 C 44.232 222.925, 44.438 223.713, 44.689 222.750 C 44.941 221.787, 44.941 220.213, 44.689 219.250 C 44.438 218.287, 44.232 219.075, 44.232 221 M 455.272 227 C 455.272 229.475, 455.467 230.488, 455.706 229.250 C 455.944 228.012, 455.944 225.988, 455.706 224.750 C 455.467 223.512, 455.272 224.525, 455.272 227 M 127 226.273 C 127 227.393, 125.864 227.998, 123.250 228.272 L 119.500 228.664 123.281 228.832 C 125.881 228.947, 127.248 228.518, 127.655 227.457 C 127.981 226.608, 127.966 225.633, 127.624 225.290 C 127.281 224.947, 127 225.390, 127 226.273 M 33.272 230 C 33.272 232.475, 33.467 233.488, 33.706 232.250 C 33.944 231.012, 33.944 228.988, 33.706 227.750 C 33.467 226.512, 33.272 227.525, 33.272 230 M 104.250 227.716 C 105.763 227.945, 108.237 227.945, 109.750 227.716 C 111.263 227.487, 110.025 227.300, 107 227.300 C 103.975 227.300, 102.737 227.487, 104.250 227.716 M 183.032 227.215 C 182.978 228.433, 189.158 235.019, 191.387 236.119 C 192.549 236.693, 192.070 235.993, 190.321 234.564 C 188.573 233.136, 186.225 230.737, 185.103 229.233 C 183.981 227.730, 183.049 226.822, 183.032 227.215 M 387.250 227.716 C 388.762 227.945, 391.238 227.945, 392.750 227.716 C 394.262 227.487, 393.025 227.300, 390 227.300 C 386.975 227.300, 385.738 227.487, 387.250 227.716 M 91.250 228.689 C 92.213 228.941, 93.787 228.941, 94.750 228.689 C 95.713 228.438, 94.925 228.232, 93 228.232 C 91.075 228.232, 90.287 228.438, 91.250 228.689 M 210.566 231.750 C 208.405 234.512, 208.232 234.976, 209.909 233.511 C 211.914 231.760, 214.558 228, 213.785 228 C 213.628 228, 212.180 229.688, 210.566 231.750 M 371.264 228.718 C 372.784 228.947, 375.034 228.941, 376.264 228.704 C 377.494 228.467, 376.250 228.279, 373.500 228.286 C 370.750 228.294, 369.744 228.488, 371.264 228.718 M 288.004 232.342 C 289.377 233.905, 291.400 235.647, 292.500 236.214 C 294.605 237.299, 294.544 237.234, 289.004 232.492 L 285.507 229.500 288.004 232.342 M 101.292 231.742 C 105.027 231.935, 110.877 231.934, 114.292 231.739 C 117.706 231.545, 114.650 231.387, 107.500 231.389 C 100.350 231.390, 97.556 231.550, 101.292 231.742 M 380.206 231.741 C 383.895 231.932, 390.195 231.934, 394.206 231.743 C 398.218 231.553, 395.200 231.396, 387.500 231.395 C 379.800 231.393, 376.518 231.549, 380.206 231.741 M 74.500 234.007 C 73.213 234.565, 74.283 234.668, 77.500 234.296 C 80.250 233.978, 82.688 233.557, 82.917 233.359 C 83.784 232.612, 76.411 233.179, 74.500 234.007 M 418.250 233.689 C 419.212 233.941, 420.788 233.941, 421.750 233.689 C 422.712 233.438, 421.925 233.232, 420 233.232 C 418.075 233.232, 417.288 233.438, 418.250 233.689 M 336.168 237.949 C 335.583 239.627, 335.317 241, 335.577 241 C 336.252 241, 338.139 235.805, 337.644 235.310 C 337.417 235.083, 336.753 236.271, 336.168 237.949 M 456.370 245 C 456.370 250.775, 456.535 253.137, 456.737 250.250 C 456.939 247.363, 456.939 242.637, 456.737 239.750 C 456.535 236.863, 456.370 239.225, 456.370 245 M 466.360 245 C 466.360 250.225, 466.529 252.363, 466.735 249.750 C 466.941 247.137, 466.941 242.863, 466.735 240.250 C 466.529 237.637, 466.360 239.775, 466.360 245 M 197.264 237.718 C 198.784 237.947, 201.034 237.941, 202.264 237.704 C 203.494 237.467, 202.250 237.279, 199.500 237.286 C 196.750 237.294, 195.744 237.488, 197.264 237.718 M 247.264 237.718 C 248.784 237.947, 251.034 237.941, 252.264 237.704 C 253.494 237.467, 252.250 237.279, 249.500 237.286 C 246.750 237.294, 245.744 237.488, 247.264 237.718 M 297.750 237.706 C 298.988 237.944, 301.012 237.944, 302.250 237.706 C 303.488 237.467, 302.475 237.272, 300 237.272 C 297.525 237.272, 296.512 237.467, 297.750 237.706 M 33.389 251.500 C 33.390 258.650, 33.550 261.444, 33.742 257.708 C 33.935 253.973, 33.934 248.123, 33.739 244.708 C 33.545 241.294, 33.387 244.350, 33.389 251.500 M 124.250 240.716 C 125.763 240.945, 128.238 240.945, 129.750 240.716 C 131.262 240.487, 130.025 240.300, 127 240.300 C 123.975 240.300, 122.737 240.487, 124.250 240.716 M 366.250 240.716 C 367.762 240.945, 370.238 240.945, 371.750 240.716 C 373.262 240.487, 372.025 240.300, 369 240.300 C 365.975 240.300, 364.738 240.487, 366.250 240.716 M 131.996 243.742 C 133.919 243.974, 136.169 244.689, 136.996 245.332 C 138.306 246.349, 138.323 246.274, 137.128 244.750 C 136.216 243.587, 134.538 243.054, 132.128 243.160 L 128.500 243.320 131.996 243.742 M 358.629 243.791 C 358.360 244.226, 359.796 244.418, 361.820 244.219 C 367.354 243.672, 368.013 243.168, 363.309 243.079 C 361.004 243.036, 358.898 243.356, 358.629 243.791 M 120.762 244.707 C 122.006 244.946, 123.806 244.937, 124.762 244.687 C 125.718 244.437, 124.700 244.241, 122.500 244.252 C 120.300 244.263, 119.518 244.468, 120.762 244.707 M 371.762 244.707 C 373.006 244.946, 374.806 244.937, 375.762 244.687 C 376.718 244.437, 375.700 244.241, 373.500 244.252 C 371.300 244.263, 370.518 244.468, 371.762 244.707 M 380.762 245.707 C 382.006 245.946, 383.806 245.937, 384.762 245.687 C 385.718 245.437, 384.700 245.241, 382.500 245.252 C 380.300 245.263, 379.518 245.468, 380.762 245.707 M 244.750 250.706 C 245.988 250.944, 248.012 250.944, 249.250 250.706 C 250.488 250.467, 249.475 250.272, 247 250.272 C 244.525 250.272, 243.512 250.467, 244.750 250.706 M 144.958 255.250 C 147.410 257.863, 149.548 260, 149.708 260 C 150.459 260, 149.665 259.102, 145.250 254.958 L 140.500 250.500 144.958 255.250 M 222 252.150 C 222 252.466, 223.350 254.424, 225 256.500 C 226.650 258.576, 227.982 259.876, 227.959 259.388 C 227.915 258.409, 222 251.227, 222 252.150 M 169.083 254.250 C 169.313 254.387, 170.850 255.625, 172.500 257 L 175.500 259.500 173.076 256.750 C 171.742 255.238, 170.205 254, 169.659 254 C 169.113 254, 168.854 254.113, 169.083 254.250 M 246.500 256.506 C 248.786 257.303, 254.822 257.521, 254.371 256.791 C 254.102 256.356, 251.996 256.036, 249.691 256.079 C 247.386 256.122, 245.950 256.315, 246.500 256.506 M 455.272 263 C 455.272 265.475, 455.467 266.488, 455.706 265.250 C 455.944 264.012, 455.944 261.988, 455.706 260.750 C 455.467 259.512, 455.272 260.525, 455.272 263 M 232 264 C 230.878 266.200, 230.184 268, 230.459 268 C 230.734 268, 231.878 266.200, 233 264 C 234.122 261.800, 234.816 260, 234.541 260 C 234.266 260, 233.122 261.800, 232 264 M 44.232 269 C 44.232 270.925, 44.438 271.712, 44.689 270.750 C 44.941 269.788, 44.941 268.212, 44.689 267.250 C 44.438 266.288, 44.232 267.075, 44.232 269 M 237 271.441 C 237 272.784, 237.369 274.110, 237.819 274.388 C 238.270 274.667, 238.443 273.568, 238.206 271.947 C 237.681 268.373, 237 268.087, 237 271.441 M 120.750 271.706 C 121.987 271.944, 124.013 271.944, 125.250 271.706 C 126.487 271.467, 125.475 271.272, 123 271.272 C 120.525 271.272, 119.513 271.467, 120.750 271.706 M 297 281.046 C 295.905 281.787, 296.309 281.880, 298.500 281.390 C 302.177 280.567, 302.975 279.995, 300.417 280.015 C 299.363 280.024, 297.825 280.487, 297 281.046 M 113.505 283.852 C 115.443 286.143, 120.092 289.040, 121.700 288.960 C 122.140 288.938, 121.150 288.208, 119.500 287.338 C 117.850 286.469, 115.378 284.799, 114.007 283.628 L 111.514 281.500 113.505 283.852 M 199.083 282.359 C 199.313 282.557, 200.850 283.021, 202.500 283.390 C 204.691 283.880, 205.095 283.787, 204 283.046 C 202.650 282.132, 198.080 281.494, 199.083 282.359 M 210.303 284.700 C 211.831 285.096, 211.907 285.421, 210.803 286.834 C 209.638 288.323, 209.684 288.355, 211.239 287.137 C 213.237 285.570, 212.674 283.946, 210.191 284.116 C 208.721 284.217, 208.735 284.293, 210.303 284.700 M 258.004 286.496 C 256.714 287.869, 255.848 289.120, 256.079 289.277 C 256.311 289.434, 257.709 288.311, 259.186 286.781 C 260.664 285.251, 261.530 284, 261.111 284 C 260.691 284, 259.293 285.123, 258.004 286.496 M 225.400 292.400 C 223.530 294.270, 222.002 296.408, 222.004 297.150 C 222.006 297.892, 222.883 297.064, 223.954 295.308 C 225.024 293.553, 227.160 291.433, 228.700 290.598 C 230.240 289.763, 230.893 289.062, 230.150 289.040 C 229.407 289.018, 227.270 290.530, 225.400 292.400 M 273.975 293.796 L 274.458 298.500 274.797 294.618 C 274.984 292.483, 274.767 290.367, 274.315 289.915 C 273.863 289.463, 273.710 291.210, 273.975 293.796 M 127 291.313 C 127 291.485, 128.463 292.948, 130.250 294.563 L 133.500 297.500 130.563 294.250 C 127.825 291.221, 127 290.540, 127 291.313 M 133.071 298.500 C 133.071 299.050, 133.714 300.625, 134.500 302 C 135.286 303.375, 135.929 304.050, 135.929 303.500 C 135.929 302.950, 135.286 301.375, 134.500 300 C 133.714 298.625, 133.071 297.950, 133.071 298.500 M 287.250 304.596 C 288.212 305.730, 289 307.185, 289 307.829 C 289 308.473, 289.466 309, 290.035 309 C 291.420 309, 289.686 305.783, 287.305 303.935 C 285.577 302.594, 285.574 302.622, 287.250 304.596 M 177.300 308.389 C 176.860 309.152, 175.600 310, 174.500 310.273 C 172.662 310.728, 172.679 310.777, 174.715 310.884 C 175.992 310.951, 177.383 310.153, 178 309 C 179.195 306.766, 178.556 306.208, 177.300 308.389 M 279.250 307.689 C 280.212 307.941, 281.788 307.941, 282.750 307.689 C 283.712 307.438, 282.925 307.232, 281 307.232 C 279.075 307.232, 278.288 307.438, 279.250 307.689 M 235.250 313.689 C 236.213 313.941, 237.787 313.941, 238.750 313.689 C 239.713 313.438, 238.925 313.232, 237 313.232 C 235.075 313.232, 234.287 313.438, 235.250 313.689 M 45.039 316.635 C 45.018 317.260, 45.657 319.285, 46.461 321.135 C 47.264 322.986, 47.939 323.989, 47.961 323.365 C 47.982 322.740, 47.343 320.715, 46.539 318.865 C 45.736 317.014, 45.061 316.011, 45.039 316.635 M 199.083 321.367 C 199.313 321.569, 201.698 321.970, 204.385 322.259 C 207.371 322.581, 208.732 322.444, 207.885 321.908 C 206.588 321.086, 198.178 320.570, 199.083 321.367 M 233.750 327.737 C 236.637 327.939, 241.363 327.939, 244.250 327.737 C 247.137 327.535, 244.775 327.370, 239 327.370 C 233.225 327.370, 230.863 327.535, 233.750 327.737 M 173.899 337.500 C 175.585 340.762, 176.970 342.570, 176.962 341.500 C 176.959 340.950, 176.035 339.375, 174.911 338 C 173.552 336.339, 173.213 336.172, 173.899 337.500 M 225.750 342.706 C 226.988 342.944, 229.012 342.944, 230.250 342.706 C 231.488 342.467, 230.475 342.272, 228 342.272 C 225.525 342.272, 224.512 342.467, 225.750 342.706 M 242.750 342.732 C 245.088 342.943, 248.912 342.943, 251.250 342.732 C 253.588 342.522, 251.675 342.349, 247 342.349 C 242.325 342.349, 240.412 342.522, 242.750 342.732 M 189.250 348.689 C 190.213 348.941, 191.787 348.941, 192.750 348.689 C 193.713 348.438, 192.925 348.232, 191 348.232 C 189.075 348.232, 188.287 348.438, 189.250 348.689 M 227.400 368.500 C 227.401 376.750, 227.556 379.992, 227.744 375.704 C 227.932 371.417, 227.931 364.667, 227.742 360.704 C 227.552 356.742, 227.399 360.250, 227.400 368.500 M 249.433 355.314 C 249.156 356.037, 249.074 361.550, 249.252 367.564 L 249.575 378.500 249.788 366.833 C 249.937 358.603, 250.368 355.018, 251.250 354.662 C 252.229 354.267, 252.222 354.141, 251.219 354.079 C 250.514 354.036, 249.710 354.591, 249.433 355.314 M 224.624 358.539 C 224.281 359.432, 224.052 361.364, 224.115 362.832 C 224.201 364.830, 224.426 364.496, 225.010 361.500 C 225.838 357.249, 225.655 355.850, 224.624 358.539 M 276.232 363 C 276.232 364.925, 276.438 365.712, 276.689 364.750 C 276.941 363.788, 276.941 362.212, 276.689 361.250 C 276.438 360.288, 276.232 361.075, 276.232 363 M 300.232 365 C 300.232 366.925, 300.438 367.712, 300.689 366.750 C 300.941 365.788, 300.941 364.212, 300.689 363.250 C 300.438 362.288, 300.232 363.075, 300.232 365 M 252.409 379.500 C 252.408 388.850, 252.558 392.810, 252.743 388.299 C 252.928 383.789, 252.929 376.139, 252.745 371.299 C 252.562 366.460, 252.410 370.150, 252.409 379.500 M 301.252 374.500 C 301.263 376.700, 301.468 377.482, 301.707 376.238 C 301.946 374.994, 301.937 373.194, 301.687 372.238 C 301.437 371.282, 301.241 372.300, 301.252 374.500 M 277.272 376 C 277.272 378.475, 277.467 379.488, 277.706 378.250 C 277.944 377.012, 277.944 374.988, 277.706 373.750 C 277.467 372.512, 277.272 373.525, 277.272 376 M 273.300 379 C 273.300 382.025, 273.487 383.262, 273.716 381.750 C 273.945 380.238, 273.945 377.762, 273.716 376.250 C 273.487 374.738, 273.300 375.975, 273.300 379 M 202.232 383 C 202.232 384.925, 202.438 385.712, 202.689 384.750 C 202.941 383.788, 202.941 382.212, 202.689 381.250 C 202.438 380.288, 202.232 381.075, 202.232 383 M 227.136 390 C 227.046 391.375, 226.741 393.625, 226.458 395 L 225.944 397.500 227.018 395.039 C 227.609 393.685, 227.914 391.435, 227.696 390.039 L 227.300 387.500 227.136 390 M 248.232 392 C 248.232 393.925, 248.438 394.712, 248.689 393.750 C 248.941 392.788, 248.941 391.212, 248.689 390.250 C 248.438 389.288, 248.232 390.075, 248.232 392 M 90 390.612 C 90 391.132, 93.037 394.470, 96.750 398.029 L 103.500 404.500 97 397.526 C 93.425 393.691, 90.388 390.353, 90.250 390.110 C 90.112 389.866, 90 390.092, 90 390.612 M 395.437 404.250 L 392.500 407.500 395.750 404.563 C 398.779 401.825, 399.460 401, 398.687 401 C 398.515 401, 397.052 402.462, 395.437 404.250 M 186.063 412.227 C 185.999 413.981, 190.610 417.724, 191.607 416.727 C 191.906 416.427, 191.188 415.877, 190.011 415.503 C 188.834 415.130, 187.478 413.851, 186.999 412.662 C 186.321 410.982, 186.113 410.885, 186.063 412.227 M 194.750 417.706 C 195.988 417.944, 198.012 417.944, 199.250 417.706 C 200.488 417.467, 199.475 417.272, 197 417.272 C 194.525 417.272, 193.512 417.467, 194.750 417.706 M 222.762 425.707 C 224.006 425.946, 225.806 425.937, 226.762 425.687 C 227.718 425.437, 226.700 425.241, 224.500 425.252 C 222.300 425.263, 221.518 425.468, 222.762 425.707 M 275.762 425.707 C 277.006 425.946, 278.806 425.937, 279.762 425.687 C 280.718 425.437, 279.700 425.241, 277.500 425.252 C 275.300 425.263, 274.518 425.468, 275.762 425.707 M 223.250 449.689 C 224.213 449.941, 225.787 449.941, 226.750 449.689 C 227.713 449.438, 226.925 449.232, 225 449.232 C 223.075 449.232, 222.287 449.438, 223.250 449.689 M 273.250 449.689 C 274.212 449.941, 275.788 449.941, 276.750 449.689 C 277.712 449.438, 276.925 449.232, 275 449.232 C 273.075 449.232, 272.288 449.438, 273.250 449.689 M 236.762 450.707 C 238.006 450.946, 239.806 450.937, 240.762 450.687 C 241.718 450.437, 240.700 450.241, 238.500 450.252 C 236.300 450.263, 235.518 450.468, 236.762 450.707 M 260.250 450.689 C 261.212 450.941, 262.788 450.941, 263.750 450.689 C 264.712 450.438, 263.925 450.232, 262 450.232 C 260.075 450.232, 259.288 450.438, 260.250 450.689 M 231.768 460.725 C 233.565 460.947, 236.265 460.943, 237.768 460.715 C 239.271 460.486, 237.800 460.304, 234.500 460.310 C 231.200 460.315, 229.971 460.502, 231.768 460.725 M 263.250 460.716 C 264.762 460.945, 267.238 460.945, 268.750 460.716 C 270.262 460.487, 269.025 460.300, 266 460.300 C 262.975 460.300, 261.738 460.487, 263.250 460.716" stroke="none" fill="#575757" fill-rule="evenodd"/><path d="M 231 31.091 C 217.149 32.628, 210.245 33.678, 199.500 35.884 C 183.323 39.205, 156.245 49.720, 142.500 58.019 C 139.750 59.679, 136.384 61.507, 135.020 62.081 C 133.657 62.655, 132.307 63.450, 132.020 63.847 C 131.734 64.244, 128.937 66.249, 125.803 68.303 C 122.670 70.356, 119.520 72.620, 118.803 73.333 C 118.087 74.046, 116.774 75.050, 115.886 75.565 C 112.958 77.261, 102.619 86.335, 95.477 93.477 C 83.257 105.698, 73.020 118.770, 64.529 133 C 62.396 136.575, 59.953 140.625, 59.101 142 C 58.249 143.375, 57.532 144.725, 57.508 145 C 57.484 145.275, 55.826 148.875, 53.822 153 C 48.128 164.726, 40.284 187.100, 38.397 197 C 36.917 204.762, 34.727 216.839, 34.406 219 C 34.203 220.375, 34.026 231.487, 34.013 243.694 C 33.992 264.988, 34.666 274.045, 37.161 286 C 37.793 289.025, 38.394 292.175, 38.498 293 C 39.188 298.481, 47.301 322.486, 51.679 332 C 53.071 335.025, 54.709 338.625, 55.319 340 C 55.929 341.375, 57.182 343.625, 58.104 345 C 59.026 346.375, 59.845 347.828, 59.925 348.230 C 60.424 350.743, 69.825 365.342, 77.500 375.523 C 84.081 384.252, 105.871 406.675, 113 412.053 C 115.475 413.921, 117.725 415.732, 118 416.079 C 119.791 418.338, 144.237 433.409, 152.500 437.349 C 158 439.971, 163.281 442.540, 164.236 443.058 C 165.191 443.576, 166.564 444, 167.286 444 C 168.009 444, 169.135 444.535, 169.790 445.190 C 170.444 445.844, 171.547 446.482, 172.240 446.607 C 172.933 446.731, 176.425 447.805, 180 448.993 C 208.842 458.577, 238.283 462.369, 265.426 459.997 C 273.717 459.272, 281.659 458.601, 283.077 458.506 C 284.494 458.410, 286.069 458.084, 286.577 457.782 C 287.084 457.479, 289.525 456.907, 292 456.511 C 294.475 456.115, 298.975 455.124, 302 454.309 C 305.025 453.494, 308.850 452.469, 310.500 452.032 C 313.984 451.109, 322.596 448.268, 325.500 447.083 C 326.600 446.635, 328.625 445.798, 330 445.224 C 332.215 444.300, 335.579 442.991, 337 442.500 C 339.764 441.545, 350.789 435.861, 355.768 432.823 C 359.215 430.721, 362.217 429, 362.439 429 C 362.998 429, 374.637 421.148, 379.486 417.499 C 391.484 408.471, 406.171 394.588, 415.994 382.988 C 419.015 379.419, 421.715 376.275, 421.994 376 C 422.272 375.725, 422.950 374.792, 423.500 373.926 C 424.050 373.060, 427.489 367.885, 431.143 362.426 C 438.664 351.189, 444 341.664, 444 339.477 C 444 338.665, 444.351 338, 444.781 338 C 445.486 338, 447.843 333.190, 448.517 330.377 C 448.665 329.759, 449.477 327.734, 450.322 325.877 C 454.865 315.893, 461.169 293.581, 463.002 281 C 463.603 276.875, 464.349 272.150, 464.660 270.500 C 465.886 263.993, 466.149 233.129, 465.067 222.799 C 462.772 200.878, 456.822 177.809, 448.933 160.250 C 447.389 156.813, 446.377 154, 446.685 154 C 446.993 154, 446.693 153.335, 446.019 152.523 C 445.344 151.710, 443.451 148.448, 441.812 145.273 C 436.890 135.741, 432.668 128.521, 431.809 128.167 C 431.364 127.983, 431 127.427, 431 126.931 C 431 124.696, 414.518 104.752, 403.730 93.934 C 392.945 83.118, 373.333 67, 370.957 67 C 370.431 67, 370 66.601, 370 66.114 C 370 65.627, 368.313 64.436, 366.250 63.467 C 364.188 62.499, 360.700 60.504, 358.500 59.033 C 349.532 53.040, 325.440 42.963, 308.500 38.120 C 299.815 35.638, 286.128 32.919, 279.500 32.360 C 276.750 32.129, 270.941 31.503, 266.591 30.970 C 257.417 29.845, 241.754 29.899, 231 31.091 M 231 40.662 C 208.966 42.818, 183.736 49.127, 167.500 56.543 C 147.949 65.472, 143.458 67.903, 131.614 75.965 C 111.721 89.506, 91.090 110.123, 77.927 129.614 C 70.420 140.729, 67.701 145.726, 60.025 162.500 C 57.451 168.125, 52.469 181.652, 51.002 187 C 50.324 189.475, 49.396 192.625, 48.941 194 C 48.087 196.578, 47.121 201.668, 44.858 215.500 C 43.462 224.031, 43.028 257.951, 44.174 269 C 44.868 275.699, 47.293 288.835, 48.974 295 C 51.832 305.485, 54.416 313.611, 55.158 314.450 C 55.621 314.972, 56 315.990, 56 316.711 C 56 318.324, 58.648 324.368, 65.217 337.749 C 78.279 364.357, 100.284 390.378, 126 409.627 C 134.403 415.917, 148.272 425, 149.474 425 C 149.715 425, 152.202 426.350, 155 428 C 157.798 429.650, 160.743 431, 161.544 431 C 162.345 431, 163 431.401, 163 431.892 C 163 432.732, 167.588 434.344, 168.342 433.768 C 168.535 433.621, 169.354 434.049, 170.163 434.720 C 172.282 436.479, 188.825 442.193, 196 443.645 C 197.375 443.923, 199.400 444.520, 200.500 444.971 C 202.373 445.739, 205.307 446.362, 219 448.905 C 223.850 449.805, 243.182 451.262, 251.500 451.354 C 262.521 451.476, 282.129 449.119, 293.500 446.305 C 296.800 445.489, 301.075 444.464, 303 444.029 C 310.070 442.429, 326.960 436.568, 332.236 433.883 C 333.191 433.397, 334.654 433, 335.486 433 C 336.319 433, 337 432.550, 337 432 C 337 431.450, 337.863 431, 338.917 431 C 339.971 431, 340.983 430.662, 341.167 430.250 C 341.350 429.837, 343.750 428.392, 346.500 427.038 C 353.514 423.584, 371.167 411.785, 379.553 404.946 C 389.770 396.613, 403.669 382.692, 412.506 371.940 C 415.957 367.741, 425 355.060, 425 354.420 C 425 354.084, 425.900 352.544, 427.001 350.999 C 429.888 346.944, 437.889 331.565, 439.528 326.921 C 440.297 324.741, 441.581 321.505, 442.381 319.729 C 445.820 312.094, 450.145 297.617, 452.550 285.688 C 454.667 275.188, 455.184 270.764, 456.692 250.254 C 458.002 232.448, 451.528 191.394, 445.063 176.500 C 444.586 175.400, 443.178 171.800, 441.934 168.500 C 440.690 165.200, 439.355 162.050, 438.967 161.500 C 438.578 160.950, 437.717 158.813, 437.053 156.750 C 436.388 154.688, 435.430 153, 434.922 153 C 434.415 153, 434.102 152.662, 434.228 152.250 C 434.565 151.138, 428.713 140, 427.791 140 C 427.356 140, 427 139.525, 427 138.945 C 427 137.926, 419.703 126.668, 417.555 124.373 C 416.975 123.753, 414.700 120.721, 412.500 117.636 C 407.675 110.871, 388.006 91.357, 379 84.400 C 341.037 55.078, 295.667 39.643, 248.957 40.160 C 241.006 40.248, 232.925 40.474, 231 40.662 M 145.479 81.664 C 144.087 83.056, 143.596 84.484, 143.892 86.280 C 143.962 86.709, 143.359 88.340, 142.550 89.903 C 141.741 91.467, 141.332 92.998, 141.640 93.306 C 141.947 93.614, 141.669 95.472, 141.022 97.434 C 139.553 101.884, 139.496 122.544, 140.942 126.348 C 141.532 127.899, 141.816 129.489, 141.573 129.882 C 141.330 130.274, 141.518 131.221, 141.991 131.985 C 142.590 132.954, 141.546 134.824, 138.539 138.168 C 134.613 142.535, 125.898 158.375, 125.428 162 C 125.321 162.825, 124.490 167.325, 123.582 172 C 120.941 185.593, 121.740 204.012, 125.594 218.391 C 126.495 221.751, 127.436 225.400, 127.685 226.500 C 128.125 228.443, 127.600 228.503, 109.319 228.589 C 90.980 228.676, 85.042 229.005, 74.250 230.535 C 69.938 231.146, 69 231.632, 69 233.256 C 69 234.907, 69.454 235.124, 71.750 234.571 C 82.467 231.988, 118.477 230.499, 127.070 232.282 C 129.801 232.849, 131.022 233.824, 132.264 236.426 C 134.252 240.596, 133.605 241, 124.937 241 C 110.341 241, 70.408 250.275, 69.183 253.950 C 68.615 255.655, 72.734 255.019, 84.500 251.585 C 93.923 248.835, 107.942 245.965, 114.140 245.517 C 116.143 245.372, 118.168 245.029, 118.640 244.754 C 119.113 244.480, 123.172 243.945, 127.660 243.567 L 135.820 242.878 138.837 247.263 C 142.614 252.753, 155.076 264.423, 159.030 266.174 C 160.664 266.897, 162 267.828, 162 268.244 C 162 268.660, 162.464 269, 163.032 269 C 163.599 269, 167.310 270.575, 171.278 272.500 C 175.246 274.425, 179.192 276, 180.047 276 C 180.901 276, 182.027 276.372, 182.550 276.826 C 183.072 277.280, 185.525 278.227, 188 278.930 C 190.475 279.633, 193.534 280.611, 194.797 281.104 C 196.060 281.597, 198.143 282, 199.425 282 C 200.707 282, 203.329 282.657, 205.251 283.460 C 207.173 284.264, 209.009 284.658, 209.330 284.337 C 209.651 284.016, 210.605 284.018, 211.450 284.342 C 212.746 284.840, 212.597 285.505, 210.493 288.605 C 209.122 290.626, 208 292.610, 208 293.014 C 208 293.418, 205.188 293.730, 201.750 293.707 C 197.243 293.676, 194.330 294.266, 191.306 295.823 C 186.569 298.263, 180.531 304.090, 178.318 308.359 C 176.754 311.377, 177.288 311.317, 168.550 309.453 C 160.627 307.764, 154.090 301.307, 147.500 288.662 C 144.420 282.752, 139.447 277.421, 134.365 274.580 C 130.683 272.523, 128.391 272, 123.048 272 C 117.338 272, 116.027 272.342, 114.174 274.314 C 109.489 279.302, 111.928 283.499, 122.617 288.838 C 129.247 292.151, 132.924 295.819, 134.925 301.117 C 142.119 320.171, 148.173 326.530, 164 331.659 C 172.592 334.443, 174 335.419, 176.146 340.074 C 176.798 341.489, 178.945 343.735, 180.916 345.064 C 183.883 347.065, 185.704 347.473, 191.500 347.434 C 195.350 347.407, 199.556 346.810, 200.846 346.106 L 203.192 344.827 202.819 367.663 L 202.447 390.500 199.599 395.788 C 197.874 398.990, 195.102 402.210, 192.568 403.953 C 187.018 407.772, 185.971 409.172, 186.669 411.842 C 188.070 417.201, 198.933 418.656, 207.500 414.632 C 213.301 411.907, 214.839 410.328, 218.340 403.500 C 222.049 396.269, 223.998 385.315, 223.999 371.700 C 224 363.081, 224.411 359.106, 225.526 356.950 C 226.365 355.328, 227.288 354, 227.577 354 C 228.720 354, 227.654 393.558, 226.413 397.160 C 225.720 399.172, 225.349 401.016, 225.589 401.256 C 226.512 402.179, 222.985 408.765, 219.572 412.491 C 215.581 416.848, 214.836 421.396, 217.750 423.608 C 220.099 425.391, 229.984 425.354, 233.604 423.548 C 244.751 417.987, 249.148 402.960, 249.391 369.590 C 249.464 359.658, 249.870 354.554, 250.609 354.304 C 252.114 353.793, 253.094 365.469, 253.039 383.249 C 252.973 404.273, 255.032 412.092, 262.488 419.130 C 266.864 423.261, 270.962 424.834, 277.500 424.892 C 287.004 424.976, 288.995 419.327, 282.001 412.121 C 279.802 409.854, 278.296 408, 278.656 408 C 279.016 408, 278.626 407.212, 277.790 406.250 C 275.151 403.211, 274.187 395.963, 273.435 373.500 C 272.940 358.703, 273.571 353.237, 275.547 355.213 C 275.907 355.574, 276.634 362.536, 277.163 370.684 C 277.691 378.833, 278.600 387.975, 279.182 391 C 280.354 397.084, 284.625 407, 286.074 407 C 286.583 407, 287 407.675, 287 408.500 C 287 409.325, 287.418 410, 287.929 410 C 288.439 410, 289.452 410.580, 290.179 411.288 C 295.408 416.385, 310.031 418.484, 315.814 414.967 C 320.788 411.942, 320.138 409.011, 313.344 403.821 C 310.234 401.444, 307.196 398.600, 306.594 397.500 C 305.992 396.400, 305.230 395.275, 304.899 395 C 303.041 393.454, 299.910 367.603, 300.699 360.318 C 301.190 355.773, 301.617 354.987, 304.168 353.930 C 305.803 353.253, 308.174 350.853, 309.582 348.451 C 311.678 344.874, 312.088 342.894, 312.091 336.338 C 312.094 327.730, 310.094 322.062, 305.088 316.500 C 303.407 314.632, 301.718 310.858, 300.613 306.500 C 298.482 298.093, 294.201 290.262, 289.461 286.100 C 286.038 283.094, 286.018 283.033, 288.304 282.460 C 289.583 282.139, 291.050 282.015, 291.564 282.184 C 292.079 282.354, 294.413 281.932, 296.750 281.246 C 299.087 280.561, 302.913 279.490, 305.250 278.866 C 318.305 275.383, 328.889 270.989, 337.450 265.499 C 344.444 261.013, 353.747 252.055, 356.920 246.750 C 359.513 242.414, 358.851 242.495, 376 244.432 C 390.193 246.036, 399.531 247.829, 415.927 252.101 C 422.212 253.739, 428.024 254.821, 428.844 254.506 C 431.968 253.308, 427.287 251.315, 412.500 247.549 C 397.744 243.791, 388.321 242.276, 372.782 241.165 C 366.887 240.743, 361.852 240.186, 361.594 239.927 C 360.751 239.085, 364.133 233.163, 365.840 232.492 C 369.385 231.098, 394.338 230.719, 403.820 231.916 C 409.144 232.588, 415.750 233.272, 418.500 233.436 C 421.250 233.599, 425.188 234.077, 427.250 234.497 C 430.589 235.178, 431 235.042, 431 233.260 C 431 231.558, 430.065 231.137, 424.750 230.446 C 413.297 228.959, 411.624 228.878, 388.729 228.715 C 368.731 228.573, 366.037 228.367, 366.612 227.027 C 367.861 224.116, 370.984 210.487, 370.992 207.917 C 370.996 206.496, 371.254 205.079, 371.565 204.769 C 372.222 204.111, 372.341 178.386, 371.692 177.259 C 371.452 176.842, 370.944 174.250, 370.564 171.500 C 369.124 161.071, 363.409 148.257, 356.068 139 C 354.106 136.525, 352.110 134.216, 351.634 133.869 C 351.157 133.522, 351.067 131.272, 351.433 128.869 C 353.128 117.746, 353.158 104.368, 351.505 96.960 C 350.590 92.857, 349.539 87.974, 349.170 86.109 C 348.166 81.026, 346.384 80.377, 337.523 81.866 C 329.822 83.160, 321.559 86.027, 317 88.986 C 315.625 89.878, 312.587 91.440, 310.250 92.456 C 307.912 93.472, 306 94.700, 306 95.183 C 306 95.667, 305.212 96.341, 304.250 96.680 C 303.288 97.020, 301.523 98.176, 300.328 99.250 C 297.672 101.637, 292.979 101.715, 285.969 99.490 C 284.742 99.101, 282.335 98.639, 280.619 98.465 C 278.904 98.290, 273.450 97.564, 268.500 96.851 C 254.904 94.894, 222.449 95.368, 218.876 97.576 C 218.034 98.097, 208.780 99.920, 204 100.508 C 202.625 100.677, 200.790 101.100, 199.922 101.449 C 198.963 101.833, 196.324 100.693, 193.196 98.541 C 190.365 96.593, 187.781 95, 187.454 95 C 187.128 95, 184.979 93.749, 182.680 92.219 C 177.029 88.460, 174.967 87.543, 164.500 84.131 C 153.089 80.411, 147.462 79.681, 145.479 81.664 M 193 167.021 C 182.054 168.333, 174.660 171.958, 167.699 179.423 C 163.664 183.752, 158.102 194.022, 157.601 198.071 C 157.436 199.407, 156.741 202.502, 156.058 204.949 C 154.271 211.348, 155.498 229.489, 158.158 236 C 165.023 252.805, 174.271 261.051, 192.870 266.950 C 196.373 268.061, 199.559 268.773, 199.949 268.532 C 200.339 268.290, 202.845 268.751, 205.518 269.555 C 208.191 270.360, 211.530 270.826, 212.939 270.591 C 214.347 270.356, 216.910 270.127, 218.633 270.082 C 220.654 270.029, 221.994 269.379, 222.408 268.250 C 223.476 265.337, 226.249 260.539, 227.242 259.887 C 227.756 259.549, 226.338 256.849, 224.092 253.887 C 220.093 248.612, 218.964 244.758, 221.041 243.474 C 221.614 243.120, 224.877 244.176, 228.291 245.820 C 241.299 252.083, 254.749 252.134, 267.388 245.967 C 274.118 242.684, 275.560 242.405, 276.261 244.250 C 277.439 247.353, 275.534 252.302, 271.383 256.919 C 268.972 259.600, 267.018 262.178, 267.041 262.647 C 267.063 263.116, 268.335 264.964, 269.867 266.754 C 274.031 271.619, 279.768 271.828, 299 267.817 C 302.025 267.186, 305.400 266.202, 306.500 265.631 C 307.600 265.060, 308.950 264.555, 309.500 264.510 C 311.351 264.357, 319 260.536, 319 259.764 C 319 259.344, 319.605 259, 320.345 259 C 322.485 259, 331.031 249.705, 334.253 243.872 C 343.946 226.326, 342.927 199.683, 331.942 183.500 C 328.070 177.794, 323.357 173.813, 316.482 170.437 C 310.727 167.611, 309.969 167.500, 296.500 167.505 C 288.800 167.508, 280.700 167.836, 278.500 168.236 C 268.401 170.068, 243.242 170.250, 225.500 168.618 C 215.600 167.707, 205.700 166.800, 203.500 166.602 C 201.300 166.404, 196.575 166.593, 193 167.021 M 195.500 185.924 C 194.400 186.378, 193.162 186.554, 192.750 186.316 C 192.338 186.077, 192 186.306, 192 186.824 C 192 187.343, 191.139 187.992, 190.086 188.267 C 188.091 188.789, 183 195.983, 183 198.280 C 183 199.006, 182.574 200.028, 182.053 200.550 C 180.593 202.015, 180.513 220.708, 181.959 222.451 C 182.626 223.255, 182.892 224.366, 182.550 224.920 C 182.207 225.474, 184.531 228.531, 187.714 231.714 L 193.500 237.500 199.126 237.165 C 203.515 236.903, 205.502 236.210, 208.168 234.013 C 217.419 226.388, 219.860 208.924, 213.528 195.672 C 211.720 191.890, 206.438 186.848, 203.840 186.426 C 203.103 186.306, 201.375 185.958, 200 185.653 C 198.625 185.348, 196.600 185.470, 195.500 185.924 M 295.327 186.089 C 291.256 187.280, 284.859 194.576, 283.250 199.862 C 282.563 202.120, 282 207.816, 282 212.517 C 282 222.764, 284.587 228.967, 291.016 234.133 C 294.556 236.978, 295.688 237.346, 300.166 237.108 C 306.749 236.759, 311.194 233.860, 314.537 227.738 C 321.930 214.200, 317.981 193.122, 307.002 187.518 C 303.222 185.589, 298.860 185.055, 295.327 186.089 M 200.974 201.064 C 199.856 203.762, 199.944 204.448, 201.710 206.814 C 206.241 212.883, 213.920 207.959, 210.826 200.968 C 209.717 198.463, 208.945 198, 205.877 198 C 202.765 198, 202.060 198.440, 200.974 201.064 M 301.975 200.565 C 300.649 204.053, 300.741 205.185, 302.557 207.777 C 305.254 211.628, 310.878 210.009, 311.687 205.149 C 311.838 204.242, 311.465 202.262, 310.859 200.750 C 309.960 198.505, 309.133 198, 306.354 198 C 303.621 198, 302.758 198.505, 301.975 200.565 M 244.741 225.704 C 242.947 225.984, 241.448 227.166, 240.457 229.083 C 238.996 231.908, 239.045 232.138, 241.612 234.516 C 243.814 236.557, 245.308 237, 249.991 237 C 256.144 237, 259 235.201, 259 231.326 C 259 226.886, 252.809 224.445, 244.741 225.704 M 234.398 260.177 C 226.932 272.989, 224 278.171, 224 278.554 C 224 278.780, 222.200 281.906, 220 285.500 C 217.800 289.094, 216 292.477, 216 293.018 C 216 293.558, 215.583 294, 215.073 294 C 213.162 294, 213.491 297.676, 215.873 302.957 C 218.232 308.184, 218.271 308.593, 216.797 312.691 C 214.986 317.728, 215.463 318.356, 222 319.555 C 227.791 320.617, 253.236 320.626, 258.679 319.568 C 261.863 318.949, 263.120 318.123, 263.959 316.100 C 264.564 314.640, 265.951 312.887, 267.041 312.206 C 272.663 308.695, 283.976 306.750, 288.961 308.436 C 291.286 309.223, 291.342 309.157, 289.961 307.253 C 289.158 306.145, 285.800 301.310, 282.500 296.510 C 279.200 291.709, 276.011 287.261, 275.413 286.625 C 274.815 285.989, 273.240 283.845, 271.913 281.861 C 266.831 274.264, 260.560 265.449, 259.403 264.277 C 258.739 263.604, 257.215 261.466, 256.016 259.527 C 253.967 256.210, 253.522 256, 248.543 256 C 245.632 256, 241.956 255.742, 240.375 255.427 C 237.746 254.904, 237.235 255.309, 234.398 260.177 M 242.500 264.155 C 237.321 266.987, 236.463 272.494, 240.602 276.331 C 242.803 278.373, 243.747 278.621, 246.742 277.945 C 251.391 276.897, 253.333 274.817, 253.333 270.886 C 253.333 268.541, 252.548 267.049, 250.417 265.344 C 247.200 262.770, 245.499 262.514, 242.500 264.155 M 258.923 286.923 C 255.636 290.210, 255.265 292.947, 257.575 296.857 C 260.523 301.849, 269.088 303.771, 272.345 300.171 C 274.182 298.142, 274.551 291.898, 273.005 289.010 C 271.856 286.862, 266.579 284, 263.769 284 C 262.712 284, 260.531 285.315, 258.923 286.923 M 228.237 290.997 C 226.442 292.091, 224.218 294.573, 223.293 296.512 C 221.834 299.572, 221.786 300.520, 222.933 303.691 C 225.311 310.268, 229.828 313.341, 237 313.263 C 245.892 313.166, 250.775 306.889, 248.019 299.099 C 246.288 294.207, 245.359 293.213, 240.391 290.950 C 234.985 288.488, 232.336 288.498, 228.237 290.997 M 196.078 323.174 C 194.006 324.582, 192.525 326.499, 192.323 328.031 C 191.880 331.400, 194.779 333.221, 208.949 338.477 C 216.683 341.346, 223.091 342.258, 237.937 342.604 C 252.316 342.939, 260.861 341.986, 272.822 338.712 C 280.360 336.649, 281.147 335.399, 275.445 334.544 C 268.701 333.533, 266.140 332.097, 264.349 328.322 C 262.633 324.707, 260.359 324.143, 255.315 326.082 C 253.755 326.682, 246.773 327.113, 239.657 327.049 C 227.753 326.942, 221.915 326.081, 211 322.824 C 203.618 320.621, 199.699 320.713, 196.078 323.174" stroke="none" fill="#040404" fill-rule="evenodd"/></svg>