<svg version="1.1" id="Layer_1" xmlns="http://www.w3.org/2000/svg" xmlns:xlink="http://www.w3.org/1999/xlink" x="0px" y="0px"
	 width="100%" viewBox="0 0 1024 1024" enable-background="new 0 0 1024 1024" xml:space="preserve">
<path fill="#000000" opacity="1.000000" stroke="none" 
	d="
M945.985718,626.701416 
	C930.027588,682.276611 905.315735,733.041321 869.832214,778.302551 
	C810.509766,853.971863 734.626770,905.749817 642.868225,934.159485 
	C615.672180,942.579773 587.730469,947.623230 559.366028,950.524658 
	C535.272705,952.989075 511.136139,953.544128 487.043243,952.144287 
	C416.259369,948.031860 350.083099,928.161560 288.781281,892.404846 
	C226.259583,855.936646 174.862961,807.615479 135.276566,746.997009 
	C104.330353,699.609192 84.021492,647.872925 73.493889,592.250610 
	C68.973839,568.369080 66.245316,544.364197 65.550423,520.039246 
	C63.003448,430.881836 85.299866,348.364349 132.275238,272.771912 
	C179.116486,197.395340 243.494858,141.624725 324.452240,105.171425 
	C361.016663,88.707268 399.163208,77.285072 438.738373,70.821098 
	C471.704926,65.436539 505.000793,64.186188 538.246399,65.960831 
	C610.104370,69.796608 677.752075,88.836502 740.432495,124.648598 
	C804.306885,161.142899 856.168030,210.188614 895.152832,272.690430 
	C924.277100,319.383636 943.763672,369.867432 954.029724,423.872223 
	C957.220337,440.656525 959.207092,457.629944 960.515442,474.715057 
	C961.993774,494.017914 962.140564,513.315430 961.162537,532.567261 
	C959.600891,563.308655 955.011536,593.667664 946.792480,623.404358 
	C946.527344,624.363525 946.344421,625.345337 945.985718,626.701416 
M816.287659,770.384277 
	C815.665955,783.909302 812.887756,796.975891 807.416626,809.588989 
	C809.510620,809.768005 810.290588,808.543640 811.171326,807.670654 
	C841.175598,777.929077 866.675537,744.792664 886.897278,707.624878 
	C917.534119,651.313782 934.453064,591.103760 937.495605,527.158203 
	C939.016052,495.203125 936.596313,463.398041 930.846069,431.828064 
	C921.862610,382.507172 904.804688,336.280121 879.011475,293.314362 
	C845.667419,237.770630 801.418640,192.838181 746.953003,157.823380 
	C687.559509,119.640587 622.420044,98.228455 552.400085,91.542236 
	C528.708008,89.279861 504.865936,89.525124 481.050049,91.181595 
	C459.615479,92.672447 438.431824,95.671631 417.511963,100.398758 
	C342.275970,117.399277 275.953400,151.690338 219.752655,204.579666 
	C171.257431,250.217499 135.908966,304.731445 113.555222,367.575226 
	C100.951859,403.007416 93.353310,439.524567 90.537529,476.954773 
	C89.228981,494.349304 88.996704,511.803925 90.034279,529.336304 
	C91.452141,553.294434 94.370148,576.977356 99.692490,600.313660 
	C118.115837,681.092590 157.346405,750.206055 216.916702,807.775085 
	C218.131256,808.948914 219.314163,810.337891 221.634155,810.904419 
	C219.485565,806.319824 217.323151,802.375244 215.738312,798.210815 
	C207.882202,777.567810 208.263199,756.339294 213.372437,735.405701 
	C231.880539,659.574097 279.321320,609.862854 352.186371,583.535400 
	C353.970917,582.890564 356.219666,582.954468 357.311249,580.845154 
	C356.917328,578.579773 355.289093,577.033508 354.136108,575.248108 
	C345.372894,561.678650 339.255768,546.977661 335.835358,531.233032 
	C334.912201,526.983704 333.982605,523.835754 329.041473,522.904541 
	C326.559570,522.436768 324.186157,520.723145 322.053864,519.173645 
	C299.665894,502.904358 288.859009,469.168884 295.209991,441.206360 
	C298.941650,424.776367 307.298767,411.939301 325.948608,409.541107 
	C327.752960,409.309113 328.220490,407.886902 328.591431,406.341766 
	C332.304993,390.871948 337.293884,375.737732 340.270111,360.061676 
	C342.674896,347.395447 345.814880,334.868835 348.554840,322.610901 
	C346.793762,320.696106 345.031158,321.217804 343.430817,321.180603 
	C331.474823,320.902557 320.047272,318.443878 309.145203,313.412811 
	C282.540619,301.135345 262.111237,274.702179 267.784363,239.445526 
	C272.591888,209.568573 288.762146,187.650787 315.737518,174.027863 
	C348.620819,157.421371 382.906464,157.270096 417.772308,166.369583 
	C421.093140,167.236282 423.395355,167.060532 426.268829,164.705292 
	C463.914795,133.849167 507.176147,124.431137 554.541809,132.289062 
	C580.746582,136.636429 603.617004,147.817642 621.354492,168.213867 
	C623.030334,170.140945 624.805969,170.858078 627.501404,170.255173 
	C638.768982,167.734863 650.081665,167.084183 661.663330,168.498276 
	C681.909668,170.970322 700.466064,177.506363 717.038025,189.439346 
	C752.723450,215.135361 763.804016,271.205139 725.246460,307.429718 
	C710.267456,321.502380 692.270752,329.128998 671.310120,328.381317 
	C667.467529,328.244232 665.807556,328.925323 666.994751,333.449890 
	C668.886475,340.659576 669.931519,348.087036 671.504578,355.385773 
	C673.837830,366.212097 675.557678,377.111481 682.183228,386.673065 
	C686.018616,392.208191 687.705505,399.110352 688.308716,405.999023 
	C688.493958,408.114929 689.112488,409.298553 691.437988,409.669617 
	C706.191345,412.023987 715.559326,420.959747 719.326538,434.938965 
	C726.602722,461.938782 722.234192,487.045288 704.655579,509.231934 
	C699.681213,515.510193 693.953674,521.207092 685.645386,523.117737 
	C683.231140,523.672974 682.729980,525.485352 682.370300,527.563599 
	C680.145630,540.415405 676.277344,552.751770 670.465149,564.439514 
	C668.331604,568.729797 665.938110,572.890808 663.566223,577.290710 
	C667.531921,579.908936 671.918701,581.001709 676.049500,582.624146 
	C714.784546,597.838196 748.503906,620.154175 774.192688,653.304260 
	C800.619141,687.406250 815.780762,725.811157 816.287659,770.384277 
M700.675415,296.176086 
	C716.906982,285.725464 728.375610,262.545135 725.368042,246.329056 
	C721.548279,225.733795 709.979309,210.973389 691.569641,201.350067 
	C674.685059,192.524002 656.626648,190.182602 637.833496,191.176865 
	C633.396851,191.411591 632.219604,192.787598 632.252319,197.055817 
	C632.335144,207.848282 628.772400,217.252274 620.424316,224.541687 
	C614.613037,229.616013 603.516479,233.825317 598.205933,232.593033 
	C599.177002,231.888504 599.927856,231.303345 600.717651,230.776566 
	C615.727417,220.764587 618.672302,207.930405 609.254639,192.636139 
	C601.868347,180.640747 591.375793,171.840042 578.699951,166.184677 
	C537.332764,147.728653 496.864960,150.926941 457.526642,172.530304 
	C451.015350,176.106094 445.023926,180.536407 439.698730,186.288101 
	C445.149414,190.626648 450.379486,194.625763 453.502167,202.283005 
	C449.921021,200.259171 447.615387,198.716248 445.123138,197.584213 
	C414.166504,183.522903 382.090576,179.002411 348.857208,187.454239 
	C326.953796,193.024673 308.588379,203.941147 297.588348,224.791046 
	C284.183563,250.198975 290.872803,274.940216 315.532806,289.611755 
	C329.291412,297.797455 344.677307,299.112640 360.025635,297.291260 
	C381.707550,294.718201 400.763062,285.398621 417.511597,271.435425 
	C421.260620,268.309845 424.806915,264.941162 429.254089,260.961792 
	C427.891846,269.139862 424.404175,275.108643 419.752319,280.297241 
	C407.962982,293.446930 394.616150,304.644196 377.920197,311.113312 
	C374.457092,312.455139 373.060425,314.625732 372.411743,317.954773 
	C370.857208,325.932404 368.971252,333.849060 367.567749,341.851471 
	C366.264313,349.283081 364.250244,356.640991 364.109161,364.119659 
	C458.740112,341.650269 552.991272,339.662415 648.212158,363.614319 
	C644.072693,342.643829 640.017822,322.102081 635.835999,300.917114 
	C643.605164,303.327637 650.511414,305.684387 657.894348,305.703827 
	C665.208008,305.723114 672.527771,306.195312 679.778320,304.628937 
	C687.003540,303.068024 693.848877,300.631531 700.675415,296.176086 
M546.418640,505.669983 
	C549.986450,496.438507 546.759094,488.265228 541.392761,480.324585 
	C548.761230,479.870300 556.613953,484.837677 558.774902,491.732483 
	C560.239136,496.404266 563.003906,497.567352 567.168640,497.681335 
	C568.646667,497.721771 570.118042,498.092743 571.587463,498.342285 
	C580.015686,499.773499 587.701233,503.565948 595.809692,506.036621 
	C614.251953,511.656067 630.267273,508.191681 644.049622,494.622986 
	C644.819397,493.865204 645.467651,492.746338 646.789978,492.769562 
	C647.908020,493.533722 647.411987,494.616608 647.354919,495.531219 
	C645.493530,525.350403 628.462097,548.628113 597.816345,557.121338 
	C586.059814,560.379456 574.108093,559.824097 562.151184,558.670044 
	C560.621460,558.522400 559.120361,558.215393 557.960449,559.482971 
	C556.944458,560.593323 557.683472,561.680298 558.286621,562.669556 
	C567.738586,578.170776 577.229553,593.648254 586.640503,609.174255 
	C588.198242,611.744141 589.915466,611.890564 592.457581,610.634644 
	C597.696289,608.046570 602.732849,605.151489 607.613525,601.940796 
	C634.667175,584.143799 652.841980,560.056458 659.969971,528.146790 
	C661.801697,519.947266 663.442444,511.705139 665.246582,503.122528 
	C676.947388,506.067780 684.253906,500.203613 689.944397,491.634430 
	C698.544128,478.684418 702.186401,464.175934 700.391602,448.860901 
	C699.025696,437.204926 693.760925,428.355774 678.673889,436.835846 
	C673.053467,439.994965 667.292969,442.905060 661.532227,445.962769 
	C660.330811,444.474243 659.997498,442.886780 659.578308,441.265381 
	C655.376404,425.010803 653.010437,408.395538 650.049194,391.906006 
	C649.327698,387.888397 647.352295,386.395355 644.060547,385.012848 
	C629.391724,378.852203 614.051331,375.535522 598.392517,373.051788 
	C572.882202,369.005432 547.190308,367.040497 521.441956,366.526581 
	C486.966095,365.838501 452.631470,368.685883 418.501526,373.521545 
	C403.342712,375.669281 388.473022,379.285492 374.292969,385.299561 
	C371.495575,386.486023 368.942169,387.634796 368.325134,391.270630 
	C366.826843,400.099365 365.136383,408.900848 363.284760,417.662872 
	C361.201508,427.521088 359.774841,437.534637 356.912659,447.242615 
	C354.561951,447.301819 353.229340,445.960358 351.680634,445.047058 
	C344.800598,440.989655 338.041565,436.667877 330.373535,434.173889 
	C325.160095,432.478271 321.809631,433.937134 319.168610,438.734680 
	C316.765228,443.100525 316.411102,447.883545 315.992279,452.715149 
	C314.536194,469.512482 319.285004,484.337952 330.461456,496.853394 
	C336.078491,503.143433 343.174652,506.502197 351.977753,503.798035 
	C352.533203,503.627411 353.222931,503.893982 353.984619,503.970703 
	C354.446167,506.252472 354.921783,508.348358 355.283447,510.463745 
	C355.646271,512.586121 355.857666,514.734070 356.199921,516.860352 
	C363.808594,564.128296 391.220459,595.424561 434.454956,614.028381 
	C437.616180,615.388672 439.323761,615.175049 441.137054,611.854614 
	C449.918213,595.774963 459.006134,579.862976 467.930359,563.860962 
	C468.679535,562.517578 470.049591,561.137878 468.510406,558.827698 
	C447.408295,560.776123 426.806488,559.241028 407.947418,547.078613 
	C387.530823,533.911743 377.403748,504.217316 380.751312,492.733734 
	C382.190643,494.025818 383.512512,495.257812 384.882202,496.434082 
	C390.874878,501.580566 397.308136,505.927490 405.175385,507.726135 
	C416.168213,510.239349 426.624786,507.611481 436.986145,504.368042 
	C443.959534,502.185181 450.610565,498.687775 457.911011,497.918121 
	C464.375000,497.236664 469.675476,496.925751 472.281128,488.993591 
	C474.381897,482.598419 482.496704,479.294312 487.358490,480.562347 
	C487.476349,482.412018 486.052399,483.550995 485.263794,484.963440 
	C477.979218,498.010254 481.888245,510.349701 495.654510,516.128479 
	C506.744293,520.783813 518.321594,520.980347 529.887756,517.875061 
	C536.643494,516.061218 542.670166,513.002319 546.418640,505.669983 
M333.940674,812.360352 
	C320.850647,781.825684 323.473114,751.792480 337.818512,721.193604 
	C317.043793,721.193604 297.247864,721.193604 277.451965,721.193604 
	C281.376160,715.424683 286.945160,713.297241 292.596588,711.729492 
	C311.553955,706.470337 330.990601,704.018860 350.571777,702.729492 
	C353.871399,702.512207 356.539429,701.818665 359.239685,699.761963 
	C366.124115,694.518311 373.217682,689.534302 380.405273,684.711243 
	C383.123688,682.887207 385.213196,680.833130 386.783142,677.945251 
	C391.266052,669.698975 397.934479,664.435425 407.567017,663.426697 
	C409.342773,663.240723 411.427002,663.178955 412.473938,661.387085 
	C417.236664,653.235352 421.906708,645.029480 426.352020,637.292114 
	C425.490723,635.280273 424.254974,634.986450 423.234131,634.539490 
	C405.956390,626.974792 390.624359,616.437439 376.929718,603.590210 
	C373.057922,599.958069 369.735260,599.573853 364.966461,601.423401 
	C329.248749,615.276794 297.821198,635.292969 273.113068,664.968567 
	C248.919205,694.026489 234.691376,727.084717 234.379456,765.316650 
	C234.148438,793.630005 248.627853,814.771423 274.772064,825.496826 
	C285.966187,830.089172 297.691711,832.016663 309.678009,833.185608 
	C321.909790,834.378479 333.723816,832.424255 346.364136,830.273926 
	C341.560394,824.450195 337.037811,819.332642 333.940674,812.360352 
M413.664856,915.756775 
	C439.064758,922.777588 464.950256,926.378296 491.254730,927.971680 
	C519.315063,929.671509 547.062988,927.581787 574.766785,923.580139 
	C577.486755,923.187195 578.817383,921.865112 578.871582,918.963135 
	C579.033264,910.306580 579.628723,901.652771 579.607727,892.999023 
	C579.494690,846.531677 580.530823,800.046753 577.664185,753.616699 
	C577.398071,749.305786 575.089905,746.978943 570.528320,747.616638 
	C555.617737,749.701355 540.629822,749.272339 525.652161,749.408997 
	C515.127747,749.505005 514.877747,749.521606 512.602966,759.486450 
	C510.307617,769.541199 505.075287,778.299377 500.938599,787.526367 
	C494.376282,802.163757 485.060089,814.864258 472.510712,825.012268 
	C456.768372,837.742249 438.510254,843.578125 418.486725,844.251709 
	C415.074005,844.366516 413.533295,845.235840 413.090057,848.956543 
	C410.602478,869.838257 411.741150,890.860718 410.378357,911.778809 
	C410.256744,913.645630 410.979889,915.020752 413.664856,915.756775 
M689.744019,666.825562 
	C696.583374,676.798035 702.002197,687.574524 704.776245,699.273621 
	C706.242310,705.456360 709.102234,708.411194 714.969421,709.212708 
	C715.623840,709.302063 716.269897,709.490784 716.904053,709.685059 
	C728.684937,713.293945 740.436707,717.009949 751.188293,723.190247 
	C753.747253,724.661194 756.765015,726.059753 757.176270,730.326843 
	C755.208008,730.326843 753.560730,730.453247 751.938110,730.306641 
	C739.373474,729.171814 726.787842,728.197083 714.267273,726.687927 
	C710.320374,726.212097 709.166870,727.145813 709.233093,730.927795 
	C709.282043,733.727966 708.604248,736.533264 708.385315,739.346863 
	C706.489563,763.704102 696.169739,783.932556 678.632568,800.738525 
	C671.644836,807.434937 663.606995,812.539795 654.661621,816.856262 
	C672.324097,828.618652 704.911621,839.533081 730.794495,835.864502 
	C751.087646,832.988159 767.286621,824.031616 779.003845,807.226868 
	C792.116699,788.420654 793.958984,767.215698 790.412170,745.531311 
	C784.045532,706.607117 765.771179,673.718445 737.135681,646.732117 
	C712.576843,623.587708 683.023499,608.884583 651.652527,597.396545 
	C648.452209,596.224548 646.993225,598.070496 645.302185,599.804932 
	C635.598022,609.757874 624.644409,618.137329 613.016907,625.687500 
	C612.445984,626.058228 611.367615,626.159851 611.566345,627.082031 
	C642.775818,629.839355 669.841370,640.469177 689.744019,666.825562 
M584.928406,650.380493 
	C581.517029,652.024231 580.183167,654.810852 580.312866,658.502930 
	C580.395630,660.857849 581.313843,661.717407 583.768860,661.360229 
	C592.384827,660.106934 601.014709,660.197083 609.603088,661.671509 
	C624.486694,664.226685 638.024231,669.852661 649.716675,679.558044 
	C654.017029,683.127686 657.496155,687.337708 659.033630,692.853943 
	C659.495789,694.512207 659.528015,696.252258 658.104492,697.499390 
	C656.595093,698.821777 654.983887,698.185974 653.474487,697.338562 
	C650.714661,695.789246 647.961670,694.227600 645.216125,692.653137 
	C626.931702,682.167114 607.495911,676.096741 586.178467,677.369934 
	C581.009644,677.678650 575.850403,678.322815 571.485596,681.464111 
	C568.619751,683.526550 566.680542,686.339783 567.605652,690.023315 
	C568.615479,694.044556 572.168945,692.671631 574.738281,692.598755 
	C590.852417,692.141357 606.202332,695.034790 620.504272,702.664368 
	C626.564575,705.897156 632.241028,709.717896 636.565063,715.171265 
	C638.449707,717.548035 641.766174,720.278992 639.317749,723.325317 
	C637.177368,725.988281 633.756470,723.868286 631.031372,722.682129 
	C628.283325,721.485962 625.627686,720.056580 622.829346,719.000427 
	C606.636292,712.888977 590.498657,706.455261 572.560242,709.324219 
	C568.610840,709.955872 564.782959,710.893921 563.643433,715.294312 
	C562.518677,719.637817 565.188049,722.601929 568.365540,724.996887 
	C573.119324,728.579773 578.738647,730.190491 584.402710,731.635620 
	C591.820190,733.528259 599.322815,735.234009 605.953430,739.272705 
	C608.133301,740.600464 610.999329,741.791748 610.520813,745.168091 
	C609.946594,749.219421 610.846252,753.122131 611.329773,757.076782 
	C613.054199,771.180542 620.291809,781.601929 632.646545,788.384521 
	C639.548279,792.173584 646.813110,792.706665 654.313293,789.793701 
	C665.160339,785.580872 673.540771,778.393738 679.272400,768.442017 
	C694.169312,742.577026 693.469177,715.971863 681.352295,689.497498 
	C670.973938,666.821594 651.613220,655.166748 628.273254,649.400574 
	C614.076233,645.893250 599.747070,644.420654 584.928406,650.380493 
M478.085144,780.571594 
	C482.536926,776.715515 486.966766,772.839966 490.546600,766.805359 
	C475.836395,773.729431 461.336578,777.858582 446.129944,778.919067 
	C435.370026,779.669495 424.497162,780.512573 413.919189,777.353027 
	C410.905640,776.452881 406.394073,776.053467 406.851562,771.749268 
	C407.299683,767.533325 411.782471,768.049561 414.887756,767.677063 
	C430.891144,765.757507 446.870514,763.786621 462.279541,758.723633 
	C468.246796,756.763062 474.062317,754.506226 480.159027,750.722046 
	C478.139801,750.198608 476.932678,749.694031 475.692871,749.593933 
	C463.574310,748.615295 451.808807,745.644958 439.922455,743.352478 
	C417.177917,738.966003 397.500061,729.705200 385.173676,708.843140 
	C383.671295,706.300476 382.034790,706.350525 379.838715,707.656799 
	C369.772430,713.644714 361.236938,721.166443 356.085205,731.913757 
	C348.441132,747.860596 346.984222,764.684631 349.257782,782.016296 
	C351.918793,802.300964 363.227631,814.852600 383.044037,819.742432 
	C395.866821,822.906616 408.884369,821.883789 421.801392,821.521362 
	C437.099030,821.092041 451.739258,817.449402 464.950745,809.251099 
	C466.553986,808.256287 468.347412,807.397156 469.028442,804.754944 
	C467.120697,805.237854 465.700256,805.555542 464.304169,805.957520 
	C453.835724,808.971558 443.202026,810.534485 432.307465,809.319702 
	C428.624298,808.909058 424.723572,808.646973 421.884491,804.195862 
	C431.263000,799.327209 441.706268,799.358704 450.998169,795.698425 
	C460.515991,791.949097 469.558716,787.488892 478.085144,780.571594 
M670.860901,848.839783 
	C662.993042,845.617065 655.285706,841.997131 648.043945,837.581726 
	C638.121399,831.531677 626.586121,826.430847 621.315674,815.737854 
	C616.262512,805.485535 609.609375,797.014160 602.322449,788.504761 
	C594.401855,779.255554 591.870300,767.422791 590.171143,754.359253 
	C588.989014,758.402771 590.179077,761.131287 590.178467,763.900635 
	C590.171814,795.381775 590.166748,826.863647 590.381470,858.343811 
	C590.513184,877.658630 591.059937,896.970337 591.331848,916.284729 
	C591.376953,919.492126 592.110779,920.647583 595.751099,919.968018 
	C605.387390,918.169556 614.958740,916.119446 624.423706,913.606079 
	C646.648438,907.704407 668.292908,900.152771 689.165588,890.454407 
	C692.034485,889.121521 693.870422,887.923584 693.147827,883.757019 
	C691.678284,875.283691 689.755615,866.815063 689.667725,858.145935 
	C689.642517,855.662903 688.427246,854.703125 686.233826,854.035645 
	C681.306763,852.536133 676.453491,850.794312 670.860901,848.839783 
M496.181091,682.160095 
	C511.573090,684.431396 527.053650,683.921631 542.519958,683.520935 
	C547.359497,683.395569 551.365479,682.072571 552.971130,676.386047 
	C553.945984,672.933594 556.860229,670.247437 560.028687,668.198242 
	C561.887939,666.995789 563.362915,665.595581 561.988953,663.041504 
	C547.088684,671.319092 533.047729,668.759521 526.120483,656.676025 
	C519.297180,644.773804 523.350281,629.400513 535.118225,622.874268 
	C540.696045,619.780884 546.657166,618.660706 552.937805,620.266785 
	C562.321411,622.666321 567.070068,629.412598 568.947449,638.811951 
	C570.509155,637.904968 571.375427,637.438599 572.205139,636.914246 
	C578.361633,633.023621 578.378845,633.007996 574.689941,626.939819 
	C558.949036,601.046326 543.107300,575.213501 527.518005,549.229187 
	C524.227844,543.745239 520.967651,539.260681 513.628418,541.222229 
	C512.859985,541.427551 511.897095,541.395020 511.152985,541.122192 
	C506.062347,539.255554 503.784332,542.110168 501.355591,546.070923 
	C478.108704,583.981140 457.288025,623.270325 435.304901,661.897461 
	C434.587952,663.157288 433.529327,664.365356 433.865326,666.004578 
	C440.692169,670.384338 478.468628,680.165649 496.181091,682.160095 
M497.748932,729.638245 
	C513.190735,731.013855 528.625183,730.842041 544.082458,729.746094 
	C547.762756,729.485168 549.340210,728.873718 547.994568,724.772766 
	C545.683167,717.728638 546.447510,710.669983 548.832886,703.738464 
	C549.303284,702.371399 550.319763,701.093323 549.612305,699.402649 
	C545.936157,697.155884 542.145630,699.225708 538.458862,699.384888 
	C503.795563,700.881714 470.289764,695.186462 437.669891,683.667114 
	C431.875580,681.621033 426.101105,679.459595 420.185425,677.831177 
	C412.785553,675.794189 405.778046,679.329346 402.416656,686.264709 
	C399.022980,693.266541 400.535706,699.792480 406.854340,704.820618 
	C411.458588,708.484436 416.755920,710.897705 422.213898,712.998169 
	C446.255829,722.250671 471.323303,726.888794 497.748932,729.638245 
M371.602264,903.748535 
	C379.883484,906.550659 388.083160,909.632690 396.618591,911.557373 
	C397.067963,910.696045 397.477386,910.274597 397.483521,909.847473 
	C397.778778,889.222412 399.146942,868.619629 398.780823,847.981201 
	C398.752289,846.373596 398.357330,844.522705 396.557739,844.652405 
	C388.856873,845.207520 381.055084,841.992249 373.458160,845.122803 
	C362.068390,849.816528 350.505768,853.966492 338.431000,856.522644 
	C335.386383,857.167236 334.029846,858.765625 333.748352,861.898560 
	C333.125397,868.831909 332.261993,875.746094 331.367798,882.651489 
	C330.970337,885.721008 332.563751,887.091064 335.055115,888.318054 
	C346.707794,894.057373 358.657166,899.081665 371.602264,903.748535 
M749.177307,855.424927 
	C738.758423,857.648376 728.280579,859.281860 717.572327,858.446899 
	C714.648499,858.218994 713.084412,859.344360 713.369080,862.421204 
	C713.659302,865.558472 714.042969,868.687317 714.317566,871.825806 
	C714.739563,876.649475 715.528503,877.144104 719.737854,875.023132 
	C729.414246,870.147339 738.351135,864.030151 747.505188,858.286926 
	C748.334045,857.766846 750.617859,857.598816 749.177307,855.424927 
M307.531128,874.163818 
	C310.949829,869.908447 308.995300,864.763672 310.744080,859.453857 
	C299.249207,859.817139 288.778809,858.466125 278.364319,856.015442 
	C287.496887,862.689148 296.842133,868.924072 307.531128,874.163818 
z"/>
<path fill="#000000" opacity="1.000000" stroke="none" 
	d="
M613.683350,300.737671 
	C612.619568,302.405182 612.610474,302.476990 611.561829,302.344482 
	C597.254761,300.536438 582.957886,298.645142 568.642334,296.907166 
	C560.740845,295.947906 552.822754,295.060608 544.888489,294.446381 
	C518.455994,292.399994 492.030487,293.268921 465.669525,295.515900 
	C449.149384,296.924103 432.705933,299.226135 416.221954,301.072632 
	C414.510315,301.264404 412.662781,301.917908 410.771576,300.386475 
	C412.373749,298.154205 414.863098,297.565735 417.046875,296.617737 
	C435.786072,288.483063 455.485046,284.164856 475.674835,281.553436 
	C494.036652,279.178467 512.439453,278.270721 530.865540,279.748291 
	C559.511536,282.045410 587.422668,287.571289 613.683350,300.737671 
z"/>
<path fill="#000000" opacity="1.000000" stroke="none" 
	d="
M583.777100,380.678253 
	C599.874451,383.017822 614.273865,387.914337 625.300781,400.058777 
	C630.901367,406.226868 634.551819,413.420135 637.003967,421.291687 
	C637.246704,422.070923 637.327698,422.936768 637.301270,423.756561 
	C637.233521,425.857788 638.004517,428.553711 635.614502,429.583527 
	C633.624329,430.441010 631.913879,428.607208 630.394531,427.329468 
	C622.389038,420.597382 613.387451,415.761353 603.362976,412.736603 
	C591.019653,409.012177 578.527039,408.563660 565.913147,410.820587 
	C562.920166,411.356049 559.946838,411.449951 556.968384,411.290558 
	C552.011963,411.025299 549.246826,407.433594 549.912659,402.442139 
	C550.909119,394.971954 554.855164,389.499481 561.309265,385.794556 
	C568.117065,381.886627 575.434448,380.043732 583.777100,380.678253 
z"/>
<path fill="#000000" opacity="1.000000" stroke="none" 
	d="
M472.576782,409.981812 
	C465.870514,413.137726 459.406158,410.773773 453.127899,410.042358 
	C432.512054,407.640625 414.315430,413.148010 397.880493,425.387329 
	C395.957397,426.819458 394.267303,429.572784 391.472717,427.714386 
	C388.572357,425.785614 389.412872,422.639801 390.216827,419.956757 
	C394.648224,405.167694 403.502747,393.926483 417.598022,387.321564 
	C429.400177,381.791199 441.753265,378.560852 454.840210,381.747681 
	C463.691528,383.903076 471.381866,388.002716 475.093170,397.114441 
	C476.983826,401.756317 475.896393,405.903229 472.576782,409.981812 
z"/>
<path fill="#000000" opacity="1.000000" stroke="none" 
	d="
M445.299744,474.325745 
	C431.691711,471.526001 424.240326,458.259186 429.701752,447.324951 
	C433.376190,439.968414 441.553558,436.121307 449.808624,437.865479 
	C457.459778,439.482086 463.776184,447.177094 464.311310,455.533630 
	C465.113464,468.059387 458.899200,474.350952 445.299744,474.325745 
z"/>
<path fill="#000000" opacity="1.000000" stroke="none" 
	d="
M588.236572,439.337952 
	C597.726807,445.178802 600.597778,453.987946 596.183655,462.856628 
	C591.110107,473.050171 581.213745,477.087341 571.274475,473.018280 
	C564.224731,470.132172 560.696716,460.874908 563.120972,451.624115 
	C566.148438,440.072144 576.436218,434.888611 588.236572,439.337952 
z"/>
<path fill="#000000" opacity="1.000000" stroke="none" 
	d="
M671.879578,486.521179 
	C666.558472,490.898956 664.161072,490.173340 662.717651,484.139709 
	C659.434753,470.417175 664.533020,455.850891 674.934875,449.194122 
	C677.502319,447.551025 680.219849,446.365540 683.332336,446.462585 
	C684.856140,446.510101 686.411926,446.739777 686.999329,448.467377 
	C687.559937,450.115997 687.692993,451.916565 686.219238,453.092651 
	C677.104675,460.366394 675.319275,470.907806 673.379822,481.412537 
	C673.081238,483.030060 672.520508,484.599182 671.879578,486.521179 
z"/>
<path fill="#000000" opacity="1.000000" stroke="none" 
	d="
M330.812683,450.738342 
	C331.012787,446.671783 333.594727,446.201355 336.441742,446.393524 
	C342.189148,446.781464 346.315308,450.075958 349.696320,454.368469 
	C354.631165,460.633789 356.657410,467.899109 356.163452,475.790070 
	C356.009735,478.245453 355.288208,480.923950 352.075256,481.223938 
	C349.183563,481.493988 346.898895,479.951630 346.568329,477.239746 
	C345.213898,466.128204 339.015503,458.075012 330.812683,450.738342 
z"/>
<path fill="#000000" opacity="1.000000" stroke="none" 
	d="
M561.503418,840.870361 
	C566.864624,850.566345 558.980042,859.760498 552.440063,860.322937 
	C546.768799,860.810547 541.157104,857.270813 539.224609,851.803345 
	C537.545227,847.052002 539.887573,840.159180 544.181519,837.216614 
	C548.877686,833.998596 554.892334,834.410217 559.336548,838.306580 
	C560.075134,838.953979 560.652100,839.785828 561.503418,840.870361 
z"/>
<path fill="#000000" opacity="1.000000" stroke="none" 
	d="
M562.442139,770.081787 
	C564.520508,778.400757 561.962524,783.454407 554.830505,785.771851 
	C548.848083,787.715637 541.611755,784.549866 539.373352,779.009460 
	C537.016052,773.174805 540.423462,765.269775 546.393677,762.722473 
	C552.666565,760.046021 558.638367,762.659424 562.442139,770.081787 
z"/>
<path fill="#000000" opacity="1.000000" stroke="none" 
	d="
M448.862366,865.310913 
	C441.177521,864.609436 436.096771,859.753540 435.709229,853.150879 
	C435.353851,847.096252 439.615784,841.721924 445.560059,840.729004 
	C451.606323,839.719055 457.586609,843.346497 459.646637,849.273438 
	C462.128662,856.414490 457.578003,863.451965 448.862366,865.310913 
z"/>
<path fill="#000000" opacity="1.000000" stroke="none" 
	d="
M491.393860,623.160889 
	C501.564636,628.253052 506.826355,637.916870 505.054260,647.757019 
	C502.788452,660.338562 495.641266,667.883728 484.707611,669.236816 
	C474.314484,670.523010 462.968994,664.474243 459.169922,654.693420 
	C453.766418,640.781982 460.909851,623.989258 479.234528,621.737732 
	C483.173706,621.253662 487.230560,621.357605 491.393860,623.160889 
z"/>
<path fill="#000000" opacity="1.000000" stroke="none" 
	d="
M510.351501,566.678101 
	C519.851807,566.146729 528.205750,567.687805 533.690247,575.779114 
	C539.448059,584.273621 539.502563,593.104309 534.373291,602.032166 
	C529.709717,610.149597 522.280151,613.555725 513.493408,612.964294 
	C503.099884,612.264709 494.237946,607.766479 490.753845,597.199829 
	C486.134827,583.191223 493.810760,569.417175 510.351501,566.678101 
z"/>
</svg>