<?xml version="1.0" standalone="no"?>
<!DOCTYPE svg PUBLIC "-//W3C//DTD SVG 20010904//EN"
 "http://www.w3.org/TR/2001/REC-SVG-20010904/DTD/svg10.dtd">
<svg version="1.0" xmlns="http://www.w3.org/2000/svg"
 width="392.000000pt" height="392.000000pt" viewBox="0 0 392.000000 392.000000"
 preserveAspectRatio="xMidYMid meet">

<g transform="translate(0.000000,392.000000) scale(0.100000,-0.100000)"
fill="#D3D3D3" stroke="none">
<path d="M1415 3826 c-23 -7 -78 -36 -122 -65 -119 -76 -132 -78 -218 -36 -38
19 -79 35 -89 35 -34 0 -100 -47 -155 -109 -62 -72 -95 -91 -222 -126 -145
-40 -196 -64 -249 -115 -79 -76 -125 -183 -216 -488 -50 -170 -54 -194 -52
-272 l2 -85 -47 -69 c-26 -37 -47 -76 -47 -85 0 -22 31 -57 135 -151 l90 -82
75 4 c49 3 109 17 172 38 l97 33 36 -18 35 -19 -35 -36 c-43 -44 -55 -77 -55
-146 0 -72 30 -158 85 -243 61 -97 95 -166 95 -196 0 -31 41 -75 69 -75 24 0
48 -65 57 -155 l7 -63 -34 -7 c-45 -10 -89 -36 -89 -53 0 -10 7 -12 28 -7 76
19 139 24 211 15 211 -27 297 -72 498 -262 182 -172 285 -224 436 -219 50 1
47 18 -5 31 -144 38 -223 83 -373 216 -61 53 -136 116 -167 139 -31 24 -54 45
-51 49 4 3 -3 16 -14 29 -11 12 -26 32 -32 45 -10 18 -9 23 4 28 21 9 19 24
-4 24 -26 0 -37 18 -17 26 22 8 20 24 -3 24 -22 0 -36 26 -18 33 8 3 6 9 -6
19 -12 9 -20 33 -24 71 -8 74 -23 84 -23 15 0 -65 33 -187 66 -247 13 -24 23
-45 21 -47 -1 -2 -22 6 -47 17 -24 11 -62 24 -84 30 -34 8 -46 18 -67 57 -14
26 -41 74 -60 107 -39 69 -40 90 -25 378 5 97 5 167 0 167 -5 0 -19 -71 -31
-157 l-22 -158 -46 -42 c-26 -24 -57 -43 -69 -43 -26 0 -56 29 -56 54 0 17 -4
25 -85 186 -45 89 -49 101 -53 185 -4 86 -3 92 22 122 33 39 95 65 137 56 31
-6 97 -61 117 -98 15 -29 24 -13 12 21 -15 39 -77 103 -117 120 -18 8 -47 14
-66 14 -26 0 -42 9 -75 43 -23 23 -42 48 -42 55 0 6 -11 19 -26 28 -20 14 -47
17 -137 15 -126 -2 -136 11 -25 35 131 28 176 14 277 -86 49 -49 62 -58 67
-45 4 9 1 28 -5 42 -10 22 -10 28 4 35 22 13 7 31 -20 24 -25 -6 -39 13 -29
38 4 11 0 13 -15 9 -28 -7 -53 15 -46 38 7 20 -9 26 -20 9 -9 -14 -45 7 -45
25 0 8 -7 15 -15 15 -8 0 -15 -4 -15 -9 0 -4 -35 -11 -77 -14 -86 -6 -158 -30
-173 -58 -16 -29 -11 -68 11 -90 18 -18 29 -20 78 -15 168 18 178 18 186 7 4
-8 -1 -11 -17 -10 -43 4 -57 -1 -63 -21 -4 -12 -15 -20 -28 -20 -12 0 -58 -7
-102 -17 -45 -9 -92 -13 -105 -10 -14 4 -62 42 -107 85 l-83 79 31 57 c22 40
34 80 40 129 9 82 109 421 161 548 48 119 98 192 150 222 24 14 92 39 153 57
146 42 192 68 276 162 45 49 78 78 91 78 12 0 44 -14 72 -32 93 -58 153 -45
320 68 109 75 135 73 246 -16 91 -73 141 -100 202 -110 29 -4 67 -11 83 -14
104 -20 125 -15 99 23 -24 34 -75 51 -150 51 -78 0 -123 22 -239 115 -98 80
-120 86 -200 61z m-462 -2400 c15 -32 35 -70 47 -86 11 -15 20 -31 20 -34 0
-3 -29 -6 -64 -6 l-63 0 4 48 c4 34 -2 65 -20 113 l-25 66 32 25 31 25 6 -47
c4 -26 18 -73 32 -104z"/>
<path d="M1588 3608 c-42 -32 -51 -141 -18 -196 12 -19 37 -40 58 -49 46 -19
52 -28 52 -80 0 -80 36 -45 52 50 11 68 3 197 -13 197 -5 0 -9 -45 -9 -99 0
-56 -4 -103 -10 -106 -5 -3 -10 1 -10 11 0 9 -20 39 -45 65 -39 42 -45 54 -45
93 0 45 13 68 24 41 3 -8 12 -15 20 -15 19 0 4 56 -22 82 -15 15 -21 16 -34 6z"/>
<path d="M2040 3553 c4 -21 17 -58 29 -83 11 -25 21 -50 21 -57 0 -14 -22 -27
-62 -37 -26 -6 -27 -5 -22 26 l5 33 -20 -24 c-37 -41 -54 -123 -43 -199 5 -37
9 -68 8 -69 -3 -4 -89 39 -149 75 -60 36 -88 37 -46 3 13 -11 55 -37 92 -57
74 -39 79 -47 101 -149 28 -130 102 -235 190 -269 40 -15 46 -21 46 -46 0 -19
16 -49 51 -92 63 -78 79 -116 79 -183 0 -39 -6 -61 -25 -89 -14 -20 -25 -41
-25 -46 0 -6 -9 -10 -19 -10 -28 0 -62 -32 -65 -62 -3 -27 -23 -63 -52 -92
-11 -11 -17 -35 -18 -69 -1 -48 3 -58 51 -125 99 -139 104 -219 18 -241 -69
-17 -85 -15 -85 14 0 29 -3 29 -87 11 l-63 -14 0 27 c0 14 4 33 9 41 20 30 -2
29 -45 -4 -25 -19 -58 -38 -75 -41 -16 -4 -29 -11 -29 -16 0 -20 32 -20 72 0
23 11 42 19 42 18 1 -1 6 -11 12 -22 9 -16 20 -19 54 -17 23 2 46 -1 49 -7 4
-6 17 -12 29 -14 12 -2 25 -6 28 -10 12 -12 83 -8 117 7 54 22 67 41 67 102 0
47 3 54 20 54 10 0 35 17 55 37 29 30 35 42 31 67 -3 19 2 39 15 57 28 40 35
116 16 172 -16 48 -13 64 9 46 18 -15 34 -2 34 28 0 33 -26 87 -60 123 -21 23
-28 42 -32 88 -7 75 -21 101 -99 186 -38 41 -59 71 -51 74 6 2 12 17 12 32 0
22 -9 36 -37 57 -83 64 -124 108 -153 166 -27 54 -30 68 -24 117 4 38 1 72
-10 110 -9 29 -16 70 -16 91 0 32 3 36 19 32 29 -7 86 14 116 45 35 35 30 82
-15 149 -18 26 -36 57 -41 70 -5 13 -15 23 -22 23 -11 0 -13 -9 -7 -37z m351
-1397 c13 -47 6 -114 -16 -156 l-16 -30 -44 25 c-57 34 -106 32 -115 -5 l-6
-25 -22 35 -22 35 48 17 c55 19 96 22 122 8 30 -16 33 6 4 29 -32 25 -80 27
-131 6 -20 -8 -38 -13 -40 -11 -3 2 5 22 16 45 23 44 69 71 122 71 15 0 30 4
34 10 13 21 55 -13 66 -54z m-87 -187 c24 -11 51 -28 60 -38 16 -17 14 -21
-24 -55 -45 -41 -65 -45 -80 -17 -15 28 -13 31 19 31 31 0 81 33 68 46 -4 4
-13 2 -19 -4 -7 -7 -22 -12 -34 -12 -17 0 -21 5 -17 19 2 10 -3 25 -12 35 -22
21 -14 20 39 -5z"/>
<path d="M1355 3560 c-16 -11 -43 -20 -58 -20 -22 0 -28 -4 -25 -17 8 -38 126
3 127 45 1 17 -9 15 -44 -8z"/>
<path d="M1769 3538 c-1 -7 0 -51 0 -98 1 -59 -3 -94 -14 -114 -20 -38 -19
-43 4 -22 11 10 23 32 27 49 3 17 15 38 26 47 29 23 37 110 13 133 -19 20 -55
23 -56 5z"/>
<path d="M1476 3503 c-8 -15 -35 -47 -60 -69 -25 -23 -46 -50 -46 -61 0 -13
-10 -22 -32 -28 -28 -9 -35 -17 -48 -62 -8 -28 -18 -55 -22 -58 -16 -16 -49
11 -89 71 -47 73 -77 97 -111 92 -21 -3 -20 -5 13 -21 23 -12 47 -37 70 -74
47 -77 75 -103 114 -103 33 0 51 15 75 63 10 20 23 29 53 34 46 7 56 26 34 66
l-17 29 44 49 c44 49 61 85 45 94 -4 3 -15 -7 -23 -22z"/>
<path d="M1164 3464 c3 -9 6 -24 6 -34 0 -11 14 -35 30 -53 17 -19 30 -40 30
-46 0 -6 5 -11 10 -11 23 0 9 57 -20 85 -16 16 -30 39 -30 52 0 14 -6 23 -16
23 -11 0 -14 -5 -10 -16z"/>
<path d="M897 3393 c-18 -17 -1 -49 62 -115 37 -40 73 -83 80 -95 10 -19 8
-23 -16 -35 -15 -7 -29 -22 -31 -32 -4 -17 0 -18 33 -13 50 8 65 23 65 66 0
32 -9 44 -76 109 -42 39 -73 72 -68 72 17 0 102 -62 144 -104 24 -26 50 -46
57 -46 20 0 15 41 -10 84 -32 56 -54 60 -27 5 l22 -44 -43 42 c-44 42 -153
113 -174 113 -7 0 -15 -3 -18 -7z"/>
<path d="M826 3331 c-4 -6 -31 -11 -61 -11 -30 0 -56 -4 -59 -9 -4 -5 6 -23
20 -41 l27 -31 -50 7 c-49 6 -93 -6 -93 -26 0 -14 30 -40 47 -40 9 0 13 6 9
15 -4 12 6 15 64 15 78 0 85 8 49 54 l-20 26 40 0 c44 0 57 11 43 36 -6 11
-11 13 -16 5z"/>
<path d="M1576 3294 c-9 -23 4 -64 20 -64 10 0 14 12 14 40 0 41 -21 57 -34
24z"/>
<path d="M1500 3271 c0 -26 10 -51 21 -51 5 0 9 16 9 35 0 24 -5 35 -15 35 -8
0 -15 -9 -15 -19z"/>
<path d="M1451 3246 c-8 -9 -11 -19 -7 -23 9 -9 29 13 24 27 -2 8 -8 7 -17 -4z"/>
<path d="M620 3157 c0 -8 17 -30 38 -47 l37 -31 -60 30 c-50 25 -62 27 -74 16
-22 -22 13 -78 90 -141 38 -31 69 -61 69 -66 0 -12 -13 -4 -77 48 -104 85
-246 110 -285 50 -20 -30 2 -34 51 -10 54 27 142 -3 256 -89 70 -52 103 -65
111 -44 11 31 -23 82 -89 132 -37 28 -69 56 -71 63 -7 16 6 9 112 -62 90 -61
122 -70 122 -34 0 35 -40 83 -100 123 -45 29 -49 35 -25 29 17 -4 50 -16 74
-26 78 -33 80 -10 3 28 -82 41 -182 58 -182 31z m153 -119 c15 -11 27 -24 27
-29 0 -10 -87 48 -97 64 -7 11 32 -9 70 -35z"/>
<path d="M446 2962 c-10 -17 26 -53 80 -79 60 -28 67 -35 27 -27 -17 3 -36 -1
-48 -10 -18 -13 -18 -17 -7 -36 8 -12 10 -20 5 -18 -69 34 -113 51 -142 55
-73 10 -78 -55 -8 -90 l32 -16 -35 -1 c-49 -3 -83 -13 -88 -28 -3 -9 16 -12
70 -12 40 0 83 3 96 6 24 7 29 33 10 52 -18 18 -6 15 64 -18 34 -16 76 -30 91
-30 41 0 47 28 11 58 -20 18 -23 24 -9 18 42 -16 71 -17 90 -3 16 13 18 18 7
41 -17 37 -100 94 -157 106 -27 6 -57 18 -66 26 -9 8 -20 11 -23 6z m119 -196
c19 -8 35 -18 35 -21 0 -5 -70 21 -79 30 -8 9 10 5 44 -9z"/>
<path d="M1760 2773 c-42 -3 -194 -29 -233 -39 -9 -3 -29 -16 -45 -28 -17 -15
-47 -25 -81 -29 -62 -7 -141 -43 -207 -93 -24 -19 -52 -34 -62 -34 -10 0 -45
-18 -78 -41 -151 -105 -216 -208 -173 -279 11 -17 19 -37 19 -45 0 -8 9 -39
21 -70 17 -45 25 -55 44 -55 13 0 27 5 31 11 4 8 9 7 15 -2 11 -18 56 7 74 42
26 50 -11 95 -45 54 -7 -8 -16 -15 -21 -15 -11 0 53 57 97 88 25 17 30 27 26
47 -3 17 -9 24 -18 21 -20 -8 -17 4 8 31 18 20 20 26 9 33 -12 7 -11 11 3 26
16 15 16 19 4 28 -24 19 -29 46 -12 75 11 19 45 40 108 69 106 48 205 84 216
77 4 -3 18 4 31 14 38 29 98 45 171 45 60 0 77 -5 148 -42 93 -48 98 -40 10
14 -33 20 -60 41 -60 45 0 14 167 10 255 -6 94 -17 159 -19 134 -5 -9 5 -58
20 -110 33 -95 25 -196 35 -279 30z"/>
<path d="M1567 2656 c-26 -7 -50 -16 -54 -19 -15 -15 9 -18 61 -7 94 19 208
-17 332 -105 103 -74 182 -103 200 -73 5 8 2 9 -11 4 -31 -12 -87 14 -180 84
-143 107 -251 143 -348 116z"/>
<path d="M245 2652 c-33 -11 -51 -26 -64 -49 -14 -28 -5 -50 28 -68 24 -12 36
-11 96 4 77 20 72 36 -9 26 -60 -8 -84 7 -51 32 28 20 71 16 136 -13 81 -37
127 -22 112 35 -5 21 -23 30 -23 12 0 -5 -7 -17 -16 -25 -14 -14 -20 -13 -67
13 -56 32 -110 44 -142 33z"/>
<path d="M1458 2583 c-44 -11 -11 -19 65 -15 155 8 261 -28 392 -134 118 -95
172 -111 254 -74 53 25 50 35 -4 15 -79 -28 -117 -15 -257 93 -134 101 -193
123 -337 121 -53 -1 -104 -3 -113 -6z"/>
<path d="M1370 2560 c0 -5 7 -10 15 -10 8 0 15 5 15 10 0 6 -7 10 -15 10 -8 0
-15 -4 -15 -10z"/>
<path d="M1495 2550 c-4 -6 -21 -16 -38 -24 -35 -15 -74 -53 -64 -62 3 -4 20
5 37 20 17 14 36 26 41 26 11 0 -9 -46 -33 -79 -12 -16 -16 -32 -12 -50 14
-55 47 -68 66 -26 10 23 17 25 73 25 43 0 66 5 75 15 22 27 48 27 87 1 21 -14
48 -26 61 -26 13 0 37 -7 53 -16 33 -17 59 -13 59 9 0 36 -151 143 -255 179
-54 20 -140 24 -150 8z"/>
<path d="M237 2475 c-56 -15 -77 -31 -77 -56 0 -22 25 -26 33 -5 3 8 35 24 71
36 102 34 80 54 -27 25z"/>
<path d="M3341 2444 c-12 -15 -21 -35 -21 -45 0 -33 39 -104 79 -143 36 -35
38 -41 29 -68 -13 -37 -6 -103 16 -150 10 -21 15 -42 11 -48 -10 -17 -22 -3
-29 36 -9 45 -65 107 -170 187 l-79 60 -90 8 c-97 8 -141 -1 -158 -32 -17 -32
18 -81 68 -94 13 -3 41 -25 64 -50 23 -24 62 -58 87 -75 44 -29 45 -31 46 -82
1 -40 5 -53 16 -53 10 0 16 13 18 42 3 40 5 43 43 53 54 15 49 30 -9 30 -45 0
-53 4 -112 58 l-64 57 37 5 c51 7 48 23 -5 33 -86 16 -149 38 -145 50 6 18
148 21 189 4 33 -14 180 -128 209 -163 9 -11 26 -46 38 -79 19 -54 20 -67 10
-113 -9 -46 -15 -54 -45 -67 -18 -7 -55 -34 -81 -58 -27 -24 -63 -52 -80 -61
-39 -20 -43 -36 -8 -36 38 0 74 22 129 79 38 39 65 56 113 72 61 20 91 48 37
35 -24 -6 -26 -5 -20 16 3 13 6 44 6 70 0 39 6 54 31 83 31 35 34 60 4 35 -25
-20 -38 2 -43 70 -5 68 10 116 39 125 30 10 23 28 -8 22 -25 -5 -32 1 -71 58
-67 97 -43 148 42 90 21 -14 40 -24 43 -22 2 3 -13 23 -35 46 -49 51 -98 57
-131 15z"/>
<path d="M3520 2351 c0 -5 9 -28 19 -52 11 -24 25 -73 31 -109 7 -36 16 -73
22 -83 8 -15 27 -197 28 -259 0 -16 41 -68 54 -68 3 0 6 15 6 34 0 19 9 45 21
61 17 21 22 42 23 94 1 57 6 75 30 111 18 28 25 45 17 48 -18 6 -13 45 14 99
25 50 47 69 66 57 13 -8 11 -60 -7 -134 -9 -42 -16 -125 -17 -230 l-3 -165
-60 -140 c-34 -77 -66 -161 -73 -187 -16 -65 -14 -155 5 -235 11 -48 14 -91
10 -148 -9 -109 6 -138 93 -183 73 -37 111 -41 111 -14 0 13 -19 28 -61 48
-86 41 -99 60 -98 148 1 39 -4 120 -12 179 -17 141 -8 189 71 392 l63 160 10
220 c14 318 14 305 -8 321 -52 39 -135 -54 -141 -158 -1 -26 -14 -72 -29 -103
-23 -46 -27 -64 -22 -105 4 -34 2 -52 -7 -59 -11 -9 -13 -3 -9 31 10 90 -50
323 -103 399 -25 37 -44 50 -44 30z"/>
<path d="M1703 2190 c-34 -14 -29 -33 6 -25 38 8 79 -13 123 -65 35 -40 48
-48 48 -30 0 13 -57 76 -89 99 -36 25 -62 31 -88 21z"/>
<path d="M1430 2185 c0 -3 18 -16 41 -30 24 -16 46 -40 55 -60 13 -32 16 -34
42 -24 47 19 142 14 199 -11 29 -12 58 -28 64 -36 6 -8 19 -14 28 -14 23 1
-37 50 -96 80 -62 31 -148 38 -191 16 -30 -16 -32 -16 -32 2 0 22 -21 43 -67
66 -33 17 -43 19 -43 11z"/>
<path d="M1947 2130 c4 -47 2 -59 -18 -84 -24 -31 -32 -76 -13 -76 18 0 37 27
24 35 -7 4 -3 15 10 32 23 30 26 86 5 123 -13 23 -13 21 -8 -30z"/>
<path d="M716 2140 c-37 -12 -86 -58 -86 -82 0 -22 16 -23 66 -2 27 11 39 13
42 5 2 -7 14 -24 27 -39 17 -20 21 -32 14 -44 -10 -19 -2 -68 11 -68 5 0 10
12 12 27 2 19 11 29 33 36 51 17 56 35 20 68 -14 14 -25 35 -25 50 0 15 -6 32
-13 38 -20 16 -68 21 -101 11z"/>
<path d="M1390 2131 c0 -10 110 -55 117 -47 5 5 -59 39 -94 50 -13 4 -23 3
-23 -3z"/>
<path d="M1360 2055 c0 -12 13 -15 63 -14 34 1 73 4 87 8 24 7 24 7 -9 14 -18
4 -58 7 -87 7 -41 0 -54 -4 -54 -15z"/>
<path d="M1554 2039 c-8 -14 74 -67 114 -73 20 -4 51 -2 69 3 18 5 42 7 55 4
23 -4 23 -4 3 12 -15 13 -32 15 -70 10 -43 -5 -59 -2 -108 23 -32 16 -60 25
-63 21z"/>
<path d="M657 2005 c-8 -46 13 -111 64 -191 39 -62 49 -87 49 -121 0 -43 12
-57 24 -27 14 38 4 73 -44 143 -53 78 -86 167 -75 201 3 11 2 20 -3 20 -5 0
-12 -11 -15 -25z"/>
<path d="M1415 2010 c-8 -12 52 -12 80 0 15 6 8 9 -27 9 -26 1 -50 -3 -53 -9z"/>
<path d="M865 1939 c-40 -35 -47 -79 -17 -112 17 -20 16 -20 -16 -14 -42 8
-33 -9 15 -30 52 -21 64 -6 61 76 -1 36 2 76 6 89 12 31 -6 28 -49 -9z"/>
<path d="M1384 1941 c-60 -44 -77 -67 -87 -124 -17 -99 -20 -197 -5 -214 8
-10 12 -36 10 -74 -5 -76 33 -198 54 -176 4 3 -1 38 -11 77 -12 50 -15 87 -10
127 5 38 3 58 -5 63 -9 5 -9 22 -1 64 8 44 17 63 41 82 36 31 38 46 8 66 l-23
15 28 36 c18 24 43 41 77 52 62 20 64 35 7 35 -33 0 -54 -8 -83 -29z"/>
<path d="M1910 1940 c-8 -16 -8 -20 3 -20 18 0 39 24 30 33 -11 12 -22 8 -33
-13z"/>
<path d="M2868 1936 c-10 -7 -18 -16 -18 -20 0 -4 -20 -51 -45 -105 -49 -106
-56 -145 -27 -139 20 4 60 73 99 172 l27 68 44 -6 c25 -3 70 -6 102 -6 51 0
60 -3 99 -38 l42 -37 -55 -53 c-63 -59 -81 -65 -72 -24 17 73 19 95 9 89 -6
-4 -14 -19 -18 -34 -10 -42 -24 -54 -46 -42 -10 5 -19 18 -19 29 0 28 -11 51
-21 44 -5 -3 -9 -18 -9 -34 0 -21 -11 -37 -47 -67 -28 -24 -43 -44 -39 -51 11
-19 32 -14 64 13 24 20 35 24 54 16 12 -5 35 -12 49 -15 25 -5 26 -8 21 -63
-4 -42 -12 -68 -33 -97 -16 -21 -29 -44 -29 -51 0 -7 -14 -31 -30 -53 -32 -44
-61 -53 -101 -32 -18 10 -18 13 -4 40 22 42 19 128 -5 168 -30 49 -41 32 -34
-52 8 -87 -11 -138 -63 -168 -18 -11 -33 -24 -33 -29 0 -12 41 -11 59 0 10 7
23 3 39 -10 14 -10 38 -19 53 -19 27 0 29 -3 30 -37 1 -21 1 -56 -1 -78 -1
-33 1 -38 11 -27 8 7 15 43 17 83 4 70 5 71 57 124 29 30 58 67 65 84 11 29
14 30 60 24 42 -5 59 0 140 37 78 36 98 41 133 36 39 -6 41 -5 23 9 -29 22
-85 18 -170 -10 -101 -34 -126 -33 -126 3 0 15 -3 50 -6 78 -6 51 -6 52 41
102 41 44 51 49 68 41 15 -8 23 -7 36 5 14 15 14 19 1 44 -15 25 -39 30 -32 7
1 -5 -18 11 -42 38 -25 26 -47 47 -48 48 -2 1 -59 3 -128 5 -93 2 -130 0 -142
-10z"/>
<path d="M2370 1862 c0 -6 50 -107 96 -194 24 -44 28 -117 9 -187 -9 -35 -52
-136 -95 -225 -60 -122 -83 -179 -92 -233 -9 -53 -9 -76 -1 -84 8 -8 16 4 28
43 10 29 48 107 86 174 123 216 155 310 146 423 -4 54 -11 72 -45 120 -22 31
-55 82 -74 114 -18 31 -38 57 -45 57 -7 0 -13 -3 -13 -8z"/>
<path d="M2020 1801 c0 -12 48 -23 62 -15 8 5 5 10 -8 15 -27 11 -54 11 -54 0z"/>
<path d="M3520 1770 c-19 -5 -45 -6 -57 -3 -27 6 -44 -24 -22 -38 23 -14 56
-10 104 13 69 34 57 47 -25 28z"/>
<path d="M1756 1747 c-14 -10 -17 -23 -14 -45 4 -29 2 -32 -21 -32 -34 0 -87
-33 -96 -59 -13 -42 40 -86 66 -55 9 11 18 8 51 -19 45 -36 54 -36 231 -22 88
7 100 11 114 32 19 28 7 88 -17 88 -8 0 -21 4 -28 9 -7 4 -25 5 -39 2 -13 -4
-30 -2 -37 3 -7 6 -40 9 -74 8 -54 -3 -64 -1 -84 20 -19 20 -20 27 -10 43 7
11 12 24 12 30 0 14 -33 12 -54 -3z m35 -136 c30 -36 114 -68 133 -52 10 8 17
7 26 -4 11 -13 3 -15 -64 -15 -108 0 -172 35 -144 79 17 27 20 27 49 -8z"/>
<path d="M3619 1691 c-71 -45 -138 -139 -139 -195 0 -10 -28 -49 -63 -86 -86
-93 -122 -166 -122 -249 0 -84 19 -92 35 -14 17 89 48 149 131 253 85 107 119
155 119 166 0 4 -9 -1 -20 -11 -11 -10 -20 -13 -20 -7 0 7 32 45 70 86 91 95
93 110 9 57z"/>
<path d="M1525 1653 c-27 -27 -16 -107 25 -176 39 -64 61 -78 31 -18 -36 69
-45 124 -27 159 9 17 16 36 16 42 0 16 -27 12 -45 -7z"/>
<path d="M820 1645 c0 -8 9 -15 20 -15 24 0 27 15 4 24 -22 9 -24 8 -24 -9z"/>
<path d="M2320 1608 l0 -53 -38 1 c-38 1 -122 45 -122 64 0 16 -37 11 -44 -6
-9 -24 -7 -62 4 -69 6 -4 8 -10 5 -15 -10 -16 101 -100 154 -116 47 -14 52
-18 49 -41 -2 -15 2 -28 9 -30 14 -5 37 61 30 88 -3 11 1 36 9 55 13 31 12 40
-8 101 -30 85 -48 93 -48 21z m-11 -154 c19 -4 31 -13 31 -22 0 -12 -3 -13
-12 -4 -7 7 -22 12 -34 12 -13 0 -26 5 -29 10 -7 12 1 12 44 4z"/>
<path d="M2731 1585 c-12 -31 -42 -96 -68 -145 -44 -86 -46 -91 -34 -129 12
-43 104 -151 127 -151 8 0 14 -6 14 -14 0 -19 209 -219 262 -250 24 -14 82
-35 128 -47 105 -26 118 -33 135 -72 11 -27 11 -34 -2 -49 -22 -24 -10 -48 67
-137 47 -55 73 -94 80 -123 16 -64 18 -68 33 -68 24 0 51 40 51 74 0 29 -25
81 -69 142 -16 21 -15 22 62 28 127 11 325 37 366 47 34 9 37 13 37 44 0 39 0
39 -50 26 -56 -15 -307 -41 -384 -40 -121 2 -128 6 -152 74 -26 73 -51 93
-140 111 -89 19 -182 74 -283 168 -43 41 -88 77 -100 81 -11 3 -21 14 -21 24
0 10 -22 49 -50 87 -27 38 -50 78 -50 90 0 12 17 57 37 99 23 49 38 98 41 131
6 71 -11 70 -37 -1z"/>
<path d="M3282 1498 c6 -16 32 -22 64 -14 40 10 27 26 -22 26 -32 0 -44 -4
-42 -12z"/>
<path d="M2246 1309 c-13 -31 -15 -58 -10 -119 6 -69 4 -82 -14 -112 -42 -67
-123 -91 -217 -63 -32 9 -106 40 -164 70 -180 90 -292 109 -348 61 -15 -13
-25 -28 -20 -32 4 -4 13 -2 19 4 18 18 66 14 133 -11 46 -18 59 -27 57 -41 -3
-15 1 -17 30 -11 30 7 31 6 19 -9 -16 -19 -6 -35 11 -18 20 20 41 15 35 -8 -5
-21 7 -28 18 -10 3 6 35 -5 76 -25 137 -70 254 -77 337 -22 73 48 102 156 66
243 -15 37 -15 91 0 127 5 10 4 17 -2 17 -5 0 -17 -18 -26 -41z"/>
<path d="M869 1191 c-14 -31 -34 -41 -81 -41 -25 0 -27 2 -21 31 8 43 -13 35
-49 -17 -28 -40 -36 -78 -18 -89 5 -3 36 1 70 8 33 8 60 12 60 10 0 -2 -7 -18
-16 -35 -11 -22 -15 -48 -12 -85 l5 -53 -38 0 c-44 0 -60 -17 -35 -36 10 -7
15 -17 11 -23 -15 -25 8 -30 37 -10 27 20 39 21 112 16 44 -3 155 -22 244 -42
196 -43 252 -51 252 -38 0 16 -330 103 -465 122 -37 6 -72 16 -76 23 -14 21
-10 86 5 117 27 51 35 54 133 36 219 -40 354 -84 431 -141 12 -9 22 -12 22 -6
0 17 -81 69 -183 118 -51 24 -135 67 -187 94 -106 56 -140 61 -68 10 26 -19
47 -35 45 -36 -1 -1 -37 6 -80 15 -81 16 -81 17 -62 64 13 31 -22 19 -36 -12z"/>
<path d="M3250 1091 c0 -22 5 -43 10 -46 6 -4 10 12 10 39 0 25 -4 46 -10 46
-5 0 -10 -18 -10 -39z"/>
<path d="M2136 1083 c-4 -4 -19 -7 -34 -8 -20 0 -28 -6 -30 -22 -3 -18 1 -23
20 -23 27 0 72 36 63 51 -7 11 -10 11 -19 2z"/>
<path d="M723 1048 c-31 -35 -45 -67 -45 -104 0 -27 -4 -34 -20 -34 -29 0 -75
-30 -87 -57 -25 -54 -2 -134 41 -149 32 -11 44 -7 91 27 38 27 45 29 139 29
74 0 99 3 96 12 -11 31 -203 41 -255 15 -42 -22 -43 -22 -43 12 0 21 8 36 30
51 17 12 30 30 30 39 0 10 7 24 15 31 8 6 21 36 30 65 25 86 18 106 -22 63z"/>
<path d="M883 1020 c-13 -5 -23 -16 -23 -24 0 -23 36 -41 115 -60 152 -36 415
-110 510 -143 105 -36 235 -101 271 -135 13 -11 24 -15 28 -10 7 11 -54 64
-119 104 -73 45 -338 135 -593 201 l-94 24 81 7 c57 5 81 11 81 21 0 7 -7 16
-16 19 -24 9 -216 6 -241 -4z"/>
<path d="M2821 919 c-24 -5 -62 -21 -84 -36 -100 -71 -91 -68 -237 -68 -74 0
-142 -4 -151 -8 -13 -7 -17 0 -21 37 -6 52 -22 76 -49 76 -28 0 -32 -17 -9
-40 14 -14 21 -32 20 -53 -1 -18 -1 -36 0 -42 2 -5 3 -19 4 -30 1 -16 6 -19
26 -15 40 7 159 5 232 -4 99 -13 132 -3 197 58 95 91 154 107 210 60 38 -32
87 -46 126 -37 29 6 28 7 -17 14 -31 5 -64 20 -100 47 -61 47 -86 54 -147 41z"/>
<path d="M2224 834 c-28 -41 -69 -57 -151 -55 -85 2 -108 -8 -116 -46 -8 -39
-93 -133 -120 -133 -12 0 -51 9 -87 20 -82 25 -122 25 -195 0 -69 -24 -65 -23
-65 -7 0 13 -144 58 -180 57 -21 -1 34 -30 110 -57 l65 -23 -70 3 c-52 2 -85
9 -126 30 -65 31 -69 32 -69 13 0 -8 29 -29 64 -46 79 -39 157 -48 274 -30 80
13 91 12 171 -8 109 -28 130 -28 176 4 l37 25 61 -40 c86 -59 134 -55 177 14
l22 35 41 -35 c65 -56 136 -78 248 -79 91 -1 100 1 165 34 62 32 75 44 136
130 84 118 106 137 165 146 43 6 45 8 23 16 -36 14 -94 -7 -142 -50 l-41 -37
16 31 c9 18 28 45 42 62 27 32 31 42 16 42 -25 0 -72 -58 -122 -149 -48 -89
-59 -103 -99 -123 -32 -15 -69 -23 -125 -26 -91 -4 -156 15 -239 70 -96 64
-94 64 -107 51 -9 -9 -10 -19 -2 -36 9 -20 6 -29 -21 -59 -17 -20 -42 -39 -56
-43 l-25 -6 25 19 c28 24 32 84 6 110 -15 15 -16 13 -17 -23 -1 -24 -3 -31 -6
-17 -6 30 -47 56 -77 48 -19 -5 -23 -3 -20 12 4 14 15 16 63 14 73 -5 127 10
170 45 26 23 34 38 38 76 6 53 -7 62 -33 21z m-183 -246 c6 -24 5 -26 -9 -18
-10 5 -28 19 -42 30 l-25 21 34 -3 c28 -2 36 -8 42 -30z"/>
<path d="M1192 768 c8 -24 55 -38 174 -53 64 -8 137 -22 161 -31 35 -14 46
-14 56 -5 9 10 6 18 -17 36 -42 34 -101 45 -223 43 -71 -1 -116 3 -132 11 -19
11 -23 11 -19 -1z"/>
<path d="M2315 701 c-17 -3 -31 -14 -33 -24 -3 -13 4 -17 31 -17 27 0 43 -8
70 -35 27 -27 43 -35 71 -35 40 0 84 19 106 45 20 24 7 26 -35 5 -42 -21 -72
-25 -94 -11 -10 6 -4 12 23 21 37 12 45 27 24 48 -13 13 -110 15 -163 3z"/>
</g>
</svg>
