<?xml version="1.0" encoding="UTF-8"?>
<svg xmlns="http://www.w3.org/2000/svg" xmlns:xlink="http://www.w3.org/1999/xlink" width="4001" height="4001" viewBox="0 0 4001 4001">
<path fill-rule="evenodd" fill="rgb(99.21875%, 95.3125%, 82.8125%)" fill-opacity="1" d="M 2000.070312 0.589844 L 0.0664062 0.589844 L 0.0664062 2000.589844 L 0.0585938 2000.589844 L 0.0585938 4000.59375 L 4000.058594 4000.59375 L 4000.058594 0.589844 L 2000.070312 0.589844 "/>
<path fill-rule="evenodd" fill="rgb(82.421875%, 52.146912%, 25.488281%)" fill-opacity="1" d="M 805.257812 1465.199219 C 946.042969 1510.160156 1081.011719 1581.5 1202.78125 1680.121094 C 1324.539062 1778.738281 1422.359375 1895.941406 1495.578125 2024.320312 C 1502.359375 2036.21875 1503.839844 2048.941406 1499.960938 2062.078125 C 1496.070312 2075.210938 1487.910156 2085.089844 1475.75 2091.390625 L 1342.578125 2160.289062 C 1320.679688 2171.621094 1294.121094 2164.898438 1280.238281 2144.53125 C 1214.609375 2048.210938 1134.03125 1959.710938 1038.789062 1882.578125 C 943.558594 1805.441406 840.25 1745 732.398438 1700.820312 C 709.589844 1691.46875 697.496094 1666.878906 704.03125 1643.109375 L 743.769531 1498.53125 C 747.398438 1485.328125 755.367188 1475.289062 767.410156 1468.761719 C 779.449219 1462.238281 792.210938 1461.03125 805.257812 1465.199219 "/>
<path fill-rule="evenodd" fill="rgb(100%, 78.125%, 34.521484%)" fill-opacity="1" d="M 715.679688 1689.46875 L 499.957031 2474.359375 C 494.519531 2494.140625 500.929688 2514.078125 516.863281 2526.980469 C 532.800781 2539.890625 553.636719 2542.019531 571.851562 2532.589844 L 1294.808594 2158.53125 C 1289.191406 2155.039062 1284.191406 2150.339844 1280.238281 2144.53125 C 1214.609375 2048.210938 1134.03125 1959.710938 1038.789062 1882.578125 C 943.558594 1805.441406 840.25 1745 732.398438 1700.820312 C 725.890625 1698.148438 720.257812 1694.238281 715.679688 1689.46875 "/>
<path fill-rule="evenodd" fill="rgb(87.5%, 43.920898%, 33.325195%)" fill-opacity="1" d="M 1077.890625 2037.359375 C 1117.28125 2069.261719 1123.351562 2127.058594 1091.449219 2166.449219 C 1059.539062 2205.839844 1001.75 2211.910156 962.363281 2180 C 922.972656 2148.101562 916.898438 2090.300781 948.804688 2050.921875 C 980.710938 2011.519531 1038.5 2005.449219 1077.890625 2037.359375 "/>
<path fill-rule="evenodd" fill="rgb(99.609375%, 72.459412%, 60.351562%)" fill-opacity="1" d="M 1033.808594 2042.171875 C 1045.640625 2051.75 1047.460938 2069.101562 1037.878906 2080.929688 C 1028.300781 2092.75 1010.949219 2094.578125 999.125 2085 C 987.296875 2075.421875 985.476562 2058.070312 995.054688 2046.238281 C 1004.628906 2034.410156 1021.988281 2032.589844 1033.808594 2042.171875 "/>
<path fill-rule="evenodd" fill="rgb(99.609375%, 72.459412%, 60.351562%)" fill-opacity="1" d="M 1042.28125 2139.371094 C 1047.699219 2143.75 1048.53125 2151.699219 1044.140625 2157.121094 C 1039.761719 2162.53125 1031.808594 2163.371094 1026.390625 2158.980469 C 1020.980469 2154.589844 1020.140625 2146.648438 1024.53125 2141.230469 C 1028.921875 2135.808594 1036.859375 2134.980469 1042.28125 2139.371094 "/>
<path fill-rule="evenodd" fill="rgb(87.5%, 43.920898%, 33.325195%)" fill-opacity="1" d="M 718.859375 1897.308594 C 790.367188 1955.230469 801.386719 2060.148438 743.46875 2131.660156 C 702.445312 2182.308594 637.839844 2202.601562 578.230469 2189.558594 L 666.445312 1868.609375 C 684.996094 1874.761719 702.773438 1884.28125 718.859375 1897.308594 "/>
<path fill-rule="evenodd" fill="rgb(99.609375%, 72.459412%, 60.351562%)" fill-opacity="1" d="M 665.636719 1926.929688 C 677.464844 1936.511719 679.285156 1953.859375 669.707031 1965.691406 C 661.792969 1975.449219 648.578125 1978.398438 637.554688 1973.730469 L 652.035156 1921.039062 C 656.863281 1921.691406 661.574219 1923.640625 665.636719 1926.929688 "/>
<path fill-rule="evenodd" fill="rgb(99.609375%, 72.459412%, 60.351562%)" fill-opacity="1" d="M 721.722656 2061.039062 C 733.550781 2070.621094 735.371094 2087.96875 725.789062 2099.800781 C 716.214844 2111.628906 698.859375 2113.449219 687.035156 2103.871094 C 675.207031 2094.289062 673.382812 2076.941406 682.964844 2065.109375 C 692.542969 2053.289062 709.894531 2051.46875 721.722656 2061.039062 "/>
<path fill-rule="evenodd" fill="rgb(99.609375%, 72.459412%, 60.351562%)" fill-opacity="1" d="M 616.992188 2087.050781 C 622.410156 2091.441406 623.242188 2099.390625 618.855469 2104.808594 C 614.46875 2110.21875 606.519531 2111.058594 601.101562 2106.671875 L 601.03125 2106.609375 L 607.136719 2084.378906 C 610.527344 2083.871094 614.117188 2084.730469 616.992188 2087.050781 "/>
<path fill-rule="evenodd" fill="rgb(87.5%, 43.920898%, 33.325195%)" fill-opacity="1" d="M 783.667969 2369.019531 C 796.929688 2379.769531 806.414062 2393.449219 811.941406 2408.371094 L 650.089844 2492.109375 C 627.800781 2459.488281 628.4375 2414.859375 654.582031 2382.578125 C 686.480469 2343.191406 744.277344 2337.121094 783.667969 2369.019531 "/>
<path fill-rule="evenodd" fill="rgb(99.609375%, 72.459412%, 60.351562%)" fill-opacity="1" d="M 739.589844 2373.828125 C 751.414062 2383.410156 753.238281 2400.761719 743.660156 2412.589844 C 734.078125 2424.421875 716.726562 2426.238281 704.898438 2416.660156 C 693.070312 2407.078125 691.25 2389.730469 700.832031 2377.898438 C 710.410156 2366.078125 727.757812 2364.25 739.589844 2373.828125 "/>
<path fill-rule="evenodd" fill="rgb(82.421875%, 52.146912%, 25.488281%)" fill-opacity="1" d="M 2805.261719 1465.199219 C 2946.039062 1510.160156 3081.011719 1581.5 3202.769531 1680.121094 C 3324.53125 1778.738281 3422.359375 1895.941406 3495.578125 2024.320312 C 3502.359375 2036.21875 3503.839844 2048.941406 3499.960938 2062.078125 C 3496.070312 2075.210938 3487.910156 2085.089844 3475.738281 2091.390625 L 3342.578125 2160.289062 C 3320.679688 2171.621094 3294.121094 2164.898438 3280.238281 2144.53125 C 3214.609375 2048.210938 3134.03125 1959.710938 3038.789062 1882.578125 C 2943.558594 1805.441406 2840.25 1745 2732.398438 1700.820312 C 2709.589844 1691.46875 2697.5 1666.878906 2704.03125 1643.109375 L 2743.769531 1498.53125 C 2747.398438 1485.328125 2755.371094 1475.289062 2767.410156 1468.761719 C 2779.449219 1462.238281 2792.210938 1461.03125 2805.261719 1465.199219 "/>
<path fill-rule="evenodd" fill="rgb(100%, 78.125%, 34.521484%)" fill-opacity="1" d="M 2715.679688 1689.46875 L 2499.960938 2474.359375 C 2494.519531 2494.140625 2500.929688 2514.078125 2516.859375 2526.980469 C 2532.800781 2539.890625 2553.640625 2542.019531 2571.851562 2532.589844 L 3294.808594 2158.53125 C 3289.191406 2155.039062 3284.191406 2150.339844 3280.238281 2144.53125 C 3214.609375 2048.210938 3134.03125 1959.710938 3038.789062 1882.578125 C 2943.558594 1805.441406 2840.25 1745 2732.398438 1700.820312 C 2725.890625 1698.148438 2720.261719 1694.238281 2715.679688 1689.46875 "/>
<path fill-rule="evenodd" fill="rgb(87.5%, 43.920898%, 33.325195%)" fill-opacity="1" d="M 3077.890625 2037.359375 C 3117.28125 2069.261719 3123.351562 2127.058594 3091.449219 2166.449219 C 3059.539062 2205.839844 3001.75 2211.910156 2962.359375 2180 C 2922.96875 2148.101562 2916.898438 2090.300781 2948.808594 2050.921875 C 2980.710938 2011.519531 3038.5 2005.449219 3077.890625 2037.359375 "/>
<path fill-rule="evenodd" fill="rgb(99.609375%, 72.459412%, 60.351562%)" fill-opacity="1" d="M 3033.808594 2042.171875 C 3045.640625 2051.75 3047.460938 2069.101562 3037.878906 2080.929688 C 3028.300781 2092.75 3010.949219 2094.578125 2999.121094 2085 C 2987.300781 2075.421875 2985.480469 2058.070312 2995.058594 2046.238281 C 3004.628906 2034.410156 3021.980469 2032.589844 3033.808594 2042.171875 "/>
<path fill-rule="evenodd" fill="rgb(99.609375%, 72.459412%, 60.351562%)" fill-opacity="1" d="M 3042.28125 2139.371094 C 3047.699219 2143.75 3048.53125 2151.699219 3044.140625 2157.121094 C 3039.761719 2162.53125 3031.808594 2163.371094 3026.390625 2158.980469 C 3020.980469 2154.589844 3020.140625 2146.648438 3024.53125 2141.230469 C 3028.921875 2135.808594 3036.859375 2134.980469 3042.28125 2139.371094 "/>
<path fill-rule="evenodd" fill="rgb(87.5%, 43.920898%, 33.325195%)" fill-opacity="1" d="M 2718.859375 1897.308594 C 2790.371094 1955.230469 2801.390625 2060.148438 2743.46875 2131.660156 C 2702.441406 2182.308594 2637.839844 2202.601562 2578.230469 2189.558594 L 2666.441406 1868.609375 C 2685 1874.761719 2702.78125 1884.28125 2718.859375 1897.308594 "/>
<path fill-rule="evenodd" fill="rgb(99.609375%, 72.459412%, 60.351562%)" fill-opacity="1" d="M 2665.628906 1926.929688 C 2677.460938 1936.511719 2679.28125 1953.859375 2669.710938 1965.691406 C 2661.789062 1975.449219 2648.578125 1978.398438 2637.550781 1973.730469 L 2652.03125 1921.039062 C 2656.859375 1921.691406 2661.578125 1923.640625 2665.628906 1926.929688 "/>
<path fill-rule="evenodd" fill="rgb(99.609375%, 72.459412%, 60.351562%)" fill-opacity="1" d="M 2721.71875 2061.039062 C 2733.550781 2070.621094 2735.371094 2087.96875 2725.789062 2099.800781 C 2716.210938 2111.628906 2698.859375 2113.449219 2687.03125 2103.871094 C 2675.210938 2094.289062 2673.378906 2076.941406 2682.960938 2065.109375 C 2692.539062 2053.289062 2709.890625 2051.46875 2721.71875 2061.039062 "/>
<path fill-rule="evenodd" fill="rgb(99.609375%, 72.459412%, 60.351562%)" fill-opacity="1" d="M 2616.988281 2087.050781 C 2622.410156 2091.441406 2623.238281 2099.390625 2618.859375 2104.808594 C 2614.46875 2110.21875 2606.519531 2111.058594 2601.101562 2106.671875 L 2601.03125 2106.609375 L 2607.140625 2084.378906 C 2610.53125 2083.871094 2614.121094 2084.730469 2616.988281 2087.050781 "/>
<path fill-rule="evenodd" fill="rgb(87.5%, 43.920898%, 33.325195%)" fill-opacity="1" d="M 2783.671875 2369.019531 C 2796.929688 2379.769531 2806.410156 2393.449219 2811.941406 2408.371094 L 2650.089844 2492.109375 C 2627.800781 2459.488281 2628.429688 2414.859375 2654.578125 2382.578125 C 2686.480469 2343.191406 2744.28125 2337.121094 2783.671875 2369.019531 "/>
<path fill-rule="evenodd" fill="rgb(99.609375%, 72.459412%, 60.351562%)" fill-opacity="1" d="M 2739.589844 2373.828125 C 2751.410156 2383.410156 2753.238281 2400.761719 2743.660156 2412.589844 C 2734.078125 2424.421875 2716.730469 2426.238281 2704.898438 2416.660156 C 2693.070312 2407.078125 2691.25 2389.730469 2700.828125 2377.898438 C 2710.410156 2366.078125 2727.761719 2364.25 2739.589844 2373.828125 "/>
<path fill-rule="evenodd" fill="rgb(82.421875%, 52.146912%, 25.488281%)" fill-opacity="1" d="M 2805.261719 3465.203125 C 2946.039062 3510.15625 3081.011719 3581.496094 3202.769531 3680.117188 C 3316.988281 3772.632812 3410.148438 3881.492188 3481.691406 4000.59375 L 3165.28125 4000.59375 C 3126.488281 3958.914062 3084.320312 3919.445312 3038.789062 3882.578125 C 2943.558594 3805.441406 2840.25 3745.003906 2732.398438 3700.816406 C 2709.589844 3691.472656 2697.5 3666.882812 2704.03125 3643.109375 L 2743.769531 3498.53125 C 2747.398438 3485.328125 2755.371094 3475.289062 2767.410156 3468.765625 C 2779.449219 3462.234375 2792.210938 3461.035156 2805.261719 3465.203125 "/>
<path fill-rule="evenodd" fill="rgb(100%, 78.125%, 34.521484%)" fill-opacity="1" d="M 2715.679688 3689.46875 L 2630.171875 4000.59375 L 3165.28125 4000.59375 C 3126.488281 3958.914062 3084.320312 3919.445312 3038.789062 3882.578125 C 2943.558594 3805.441406 2840.25 3745.003906 2732.398438 3700.816406 C 2725.890625 3698.152344 2720.261719 3694.242188 2715.679688 3689.46875 "/>
<path fill-rule="evenodd" fill="rgb(87.5%, 43.920898%, 33.325195%)" fill-opacity="1" d="M 2718.859375 3897.3125 C 2752.128906 3924.265625 2772.300781 3961.390625 2778.53125 4000.59375 L 2630.171875 4000.59375 L 2666.441406 3868.609375 C 2685 3874.757812 2702.78125 3884.285156 2718.859375 3897.3125 "/>
<path fill-rule="evenodd" fill="rgb(99.609375%, 72.459412%, 60.351562%)" fill-opacity="1" d="M 2665.628906 3926.929688 C 2677.460938 3936.507812 2679.28125 3953.859375 2669.710938 3965.6875 C 2661.789062 3975.453125 2648.578125 3978.398438 2637.550781 3973.726562 L 2652.03125 3921.039062 C 2656.859375 3921.695312 2661.578125 3923.640625 2665.628906 3926.929688 "/>
<path fill-rule="evenodd" fill="rgb(82.421875%, 52.146912%, 25.488281%)" fill-opacity="1" d="M 805.261719 3465.203125 C 946.046875 3510.15625 1081.011719 3581.496094 1202.78125 3680.117188 C 1317 3772.632812 1410.148438 3881.492188 1481.691406 4000.59375 L 1165.289062 4000.59375 C 1126.488281 3958.914062 1084.320312 3919.445312 1038.800781 3882.578125 C 943.566406 3805.441406 840.253906 3745.003906 732.398438 3700.816406 C 709.589844 3691.472656 697.503906 3666.882812 704.035156 3643.109375 L 743.773438 3498.53125 C 747.402344 3485.328125 755.371094 3475.289062 767.414062 3468.765625 C 779.457031 3462.234375 792.214844 3461.035156 805.261719 3465.203125 "/>
<path fill-rule="evenodd" fill="rgb(100%, 78.125%, 34.521484%)" fill-opacity="1" d="M 715.683594 3689.46875 L 630.171875 4000.59375 L 1165.289062 4000.59375 C 1126.488281 3958.914062 1084.320312 3919.445312 1038.800781 3882.578125 C 943.566406 3805.441406 840.253906 3745.003906 732.398438 3700.816406 C 725.894531 3698.152344 720.261719 3694.242188 715.683594 3689.46875 "/>
<path fill-rule="evenodd" fill="rgb(87.5%, 43.920898%, 33.325195%)" fill-opacity="1" d="M 718.863281 3897.3125 C 752.136719 3924.265625 772.304688 3961.390625 778.535156 4000.59375 L 630.171875 4000.59375 L 666.445312 3868.609375 C 685 3874.757812 702.777344 3884.285156 718.863281 3897.3125 "/>
<path fill-rule="evenodd" fill="rgb(99.609375%, 72.459412%, 60.351562%)" fill-opacity="1" d="M 665.636719 3926.929688 C 677.464844 3936.507812 679.289062 3953.859375 669.710938 3965.6875 C 661.796875 3975.453125 648.582031 3978.398438 637.554688 3973.726562 L 652.039062 3921.039062 C 656.867188 3921.695312 661.578125 3923.640625 665.636719 3926.929688 "/>
<path fill-rule="evenodd" fill="rgb(82.421875%, 52.146912%, 25.488281%)" fill-opacity="1" d="M 3481.691406 0.589844 C 3486.410156 8.460938 3491.039062 16.371094 3495.578125 24.320312 C 3502.359375 36.21875 3503.839844 48.941406 3499.960938 62.078125 C 3496.070312 75.21875 3487.910156 85.089844 3475.738281 91.390625 L 3342.578125 160.289062 C 3320.679688 171.621094 3294.121094 164.898438 3280.238281 144.53125 C 3245.980469 94.25 3207.648438 46.109375 3165.28125 0.589844 L 3481.691406 0.589844 "/>
<path fill-rule="evenodd" fill="rgb(100%, 78.125%, 34.521484%)" fill-opacity="1" d="M 2630.171875 0.589844 L 2499.960938 474.359375 C 2494.519531 494.140625 2500.929688 514.078125 2516.859375 526.988281 C 2532.800781 539.890625 2553.640625 542.019531 2571.851562 532.589844 L 3294.808594 158.53125 C 3289.191406 155.039062 3284.191406 150.339844 3280.238281 144.53125 C 3245.980469 94.25 3207.648438 46.109375 3165.28125 0.589844 L 2630.171875 0.589844 "/>
<path fill-rule="evenodd" fill="rgb(87.5%, 43.920898%, 33.325195%)" fill-opacity="1" d="M 3077.890625 37.359375 C 3117.28125 69.261719 3123.351562 127.058594 3091.449219 166.449219 C 3059.539062 205.839844 3001.75 211.910156 2962.359375 180 C 2922.96875 148.101562 2916.898438 90.308594 2948.808594 50.921875 C 2980.710938 11.519531 3038.5 5.460938 3077.890625 37.359375 "/>
<path fill-rule="evenodd" fill="rgb(99.609375%, 72.459412%, 60.351562%)" fill-opacity="1" d="M 3033.808594 42.171875 C 3045.640625 51.75 3047.460938 69.101562 3037.878906 80.929688 C 3028.300781 92.75 3010.949219 94.578125 2999.121094 85 C 2987.300781 75.421875 2985.480469 58.070312 2995.050781 46.238281 C 3004.628906 34.410156 3021.980469 32.589844 3033.808594 42.171875 "/>
<path fill-rule="evenodd" fill="rgb(99.609375%, 72.459412%, 60.351562%)" fill-opacity="1" d="M 3042.28125 139.371094 C 3047.699219 143.75 3048.53125 151.699219 3044.140625 157.121094 C 3039.761719 162.53125 3031.808594 163.371094 3026.390625 158.980469 C 3020.980469 154.601562 3020.140625 146.648438 3024.53125 141.230469 C 3028.921875 135.808594 3036.859375 134.980469 3042.28125 139.371094 "/>
<path fill-rule="evenodd" fill="rgb(87.5%, 43.920898%, 33.325195%)" fill-opacity="1" d="M 2778.53125 0.589844 C 2785.691406 45.640625 2774.429688 93.429688 2743.46875 131.660156 C 2702.441406 182.308594 2637.839844 202.601562 2578.230469 189.558594 L 2630.171875 0.589844 L 2778.53125 0.589844 "/>
<path fill-rule="evenodd" fill="rgb(99.609375%, 72.459412%, 60.351562%)" fill-opacity="1" d="M 2721.71875 61.039062 C 2733.550781 70.621094 2735.371094 87.96875 2725.789062 99.800781 C 2716.210938 111.628906 2698.859375 113.449219 2687.03125 103.871094 C 2675.210938 94.289062 2673.378906 76.941406 2682.960938 65.109375 C 2692.539062 53.289062 2709.890625 51.46875 2721.71875 61.039062 "/>
<path fill-rule="evenodd" fill="rgb(99.609375%, 72.459412%, 60.351562%)" fill-opacity="1" d="M 2616.988281 87.050781 C 2622.410156 91.441406 2623.238281 99.390625 2618.859375 104.808594 C 2614.46875 110.21875 2606.519531 111.058594 2601.101562 106.671875 L 2601.03125 106.609375 L 2607.140625 84.390625 C 2610.53125 83.871094 2614.121094 84.730469 2616.988281 87.050781 "/>
<path fill-rule="evenodd" fill="rgb(87.5%, 43.920898%, 33.325195%)" fill-opacity="1" d="M 2783.671875 369.019531 C 2796.929688 379.769531 2806.410156 393.449219 2811.941406 408.371094 L 2650.089844 492.109375 C 2627.800781 459.488281 2628.429688 414.859375 2654.578125 382.578125 C 2686.480469 343.191406 2744.28125 337.121094 2783.671875 369.019531 "/>
<path fill-rule="evenodd" fill="rgb(99.609375%, 72.459412%, 60.351562%)" fill-opacity="1" d="M 2739.589844 373.828125 C 2751.410156 383.410156 2753.238281 400.761719 2743.660156 412.589844 C 2734.078125 424.421875 2716.730469 426.238281 2704.898438 416.660156 C 2693.070312 407.078125 2691.25 389.730469 2700.828125 377.898438 C 2710.410156 366.078125 2727.761719 364.25 2739.589844 373.828125 "/>
<path fill-rule="evenodd" fill="rgb(82.421875%, 52.146912%, 25.488281%)" fill-opacity="1" d="M 1481.691406 0.589844 C 1486.421875 8.460938 1491.039062 16.371094 1495.578125 24.320312 C 1502.371094 36.21875 1503.839844 48.941406 1499.960938 62.078125 C 1496.078125 75.21875 1487.910156 85.089844 1475.75 91.390625 L 1342.578125 160.289062 C 1320.679688 171.621094 1294.121094 164.898438 1280.238281 144.53125 C 1245.980469 94.25 1207.648438 46.109375 1165.289062 0.589844 L 1481.691406 0.589844 "/>
<path fill-rule="evenodd" fill="rgb(100%, 78.125%, 34.521484%)" fill-opacity="1" d="M 630.171875 0.589844 L 499.957031 474.359375 C 494.523438 494.140625 500.929688 514.078125 516.867188 526.988281 C 532.804688 539.890625 553.640625 542.019531 571.851562 532.589844 L 1294.808594 158.53125 C 1289.191406 155.039062 1284.199219 150.339844 1280.238281 144.53125 C 1245.980469 94.25 1207.648438 46.109375 1165.289062 0.589844 L 630.171875 0.589844 "/>
<path fill-rule="evenodd" fill="rgb(87.5%, 43.920898%, 33.325195%)" fill-opacity="1" d="M 1077.898438 37.359375 C 1117.289062 69.261719 1123.359375 127.058594 1091.449219 166.449219 C 1059.550781 205.839844 1001.75 211.910156 962.363281 180 C 922.972656 148.101562 916.902344 90.308594 948.808594 50.921875 C 980.714844 11.519531 1038.511719 5.460938 1077.898438 37.359375 "/>
<path fill-rule="evenodd" fill="rgb(99.609375%, 72.459412%, 60.351562%)" fill-opacity="1" d="M 1033.820312 42.171875 C 1045.640625 51.75 1047.46875 69.101562 1037.878906 80.929688 C 1028.308594 92.75 1010.960938 94.578125 999.128906 85 C 987.300781 75.421875 985.476562 58.070312 995.054688 46.238281 C 1004.640625 34.410156 1021.988281 32.589844 1033.820312 42.171875 "/>
<path fill-rule="evenodd" fill="rgb(99.609375%, 72.459412%, 60.351562%)" fill-opacity="1" d="M 1042.28125 139.371094 C 1047.699219 143.75 1048.53125 151.699219 1044.148438 157.121094 C 1039.761719 162.53125 1031.808594 163.371094 1026.398438 158.980469 C 1020.980469 154.601562 1020.140625 146.648438 1024.53125 141.230469 C 1028.921875 135.808594 1036.871094 134.980469 1042.28125 139.371094 "/>
<path fill-rule="evenodd" fill="rgb(87.5%, 43.920898%, 33.325195%)" fill-opacity="1" d="M 778.535156 0.589844 C 785.691406 45.640625 774.441406 93.429688 743.472656 131.660156 C 702.449219 182.308594 637.847656 202.601562 578.238281 189.558594 L 630.171875 0.589844 L 778.535156 0.589844 "/>
<path fill-rule="evenodd" fill="rgb(99.609375%, 72.459412%, 60.351562%)" fill-opacity="1" d="M 721.726562 61.039062 C 733.550781 70.621094 735.371094 87.96875 725.792969 99.800781 C 716.214844 111.628906 698.863281 113.449219 687.039062 103.871094 C 675.214844 94.289062 673.386719 76.941406 682.964844 65.109375 C 692.542969 53.289062 709.898438 51.46875 721.726562 61.039062 "/>
<path fill-rule="evenodd" fill="rgb(99.609375%, 72.459412%, 60.351562%)" fill-opacity="1" d="M 616.996094 87.050781 C 622.414062 91.441406 623.246094 99.390625 618.859375 104.808594 C 614.472656 110.21875 606.523438 111.058594 601.105469 106.671875 L 601.035156 106.609375 L 607.144531 84.390625 C 610.53125 83.871094 614.121094 84.730469 616.996094 87.050781 "/>
<path fill-rule="evenodd" fill="rgb(87.5%, 43.920898%, 33.325195%)" fill-opacity="1" d="M 783.671875 369.019531 C 796.933594 379.769531 806.414062 393.449219 811.945312 408.371094 L 650.097656 492.109375 C 627.800781 459.488281 628.441406 414.859375 654.585938 382.578125 C 686.488281 343.191406 744.28125 337.121094 783.671875 369.019531 "/>
<path fill-rule="evenodd" fill="rgb(99.609375%, 72.459412%, 60.351562%)" fill-opacity="1" d="M 739.589844 373.828125 C 751.417969 383.410156 753.238281 400.761719 743.660156 412.589844 C 734.082031 424.421875 716.730469 426.238281 704.902344 416.660156 C 693.074219 407.078125 691.253906 389.730469 700.832031 377.898438 C 710.414062 366.078125 727.761719 364.25 739.589844 373.828125 "/>
<path fill-rule="evenodd" fill="rgb(82.421875%, 52.146912%, 25.488281%)" fill-opacity="1" d="M 2194.859375 465.199219 C 2054.078125 510.160156 1919.109375 581.5 1797.351562 680.121094 C 1675.578125 778.738281 1577.761719 895.941406 1504.539062 1024.320312 C 1497.761719 1036.21875 1496.28125 1048.941406 1500.160156 1062.078125 C 1504.050781 1075.21875 1512.210938 1085.089844 1524.378906 1091.390625 L 1657.539062 1160.289062 C 1679.441406 1171.621094 1706 1164.898438 1719.878906 1144.53125 C 1785.511719 1048.210938 1866.089844 959.710938 1961.328125 882.578125 C 2056.558594 805.441406 2159.871094 745 2267.71875 700.820312 C 2290.53125 691.46875 2302.621094 666.878906 2296.089844 643.109375 L 2256.351562 498.53125 C 2252.71875 485.328125 2244.75 475.289062 2232.710938 468.761719 C 2220.671875 462.238281 2207.910156 461.03125 2194.859375 465.199219 "/>
<path fill-rule="evenodd" fill="rgb(100%, 78.125%, 34.521484%)" fill-opacity="1" d="M 2284.441406 689.46875 L 2500.171875 1474.359375 C 2505.601562 1494.140625 2499.191406 1514.078125 2483.261719 1526.988281 C 2467.320312 1539.890625 2446.480469 1542.019531 2428.269531 1532.589844 L 1705.308594 1158.53125 C 1710.929688 1155.039062 1715.929688 1150.339844 1719.878906 1144.53125 C 1785.511719 1048.210938 1866.089844 959.710938 1961.328125 882.578125 C 2056.558594 805.441406 2159.871094 745 2267.71875 700.820312 C 2274.230469 698.148438 2279.859375 694.238281 2284.441406 689.46875 "/>
<path fill-rule="evenodd" fill="rgb(87.5%, 43.920898%, 33.325195%)" fill-opacity="1" d="M 1922.230469 1037.359375 C 1882.839844 1069.261719 1876.769531 1127.058594 1908.671875 1166.449219 C 1940.578125 1205.839844 1998.371094 1211.910156 2037.761719 1180 C 2077.148438 1148.101562 2083.21875 1090.300781 2051.320312 1050.921875 C 2019.410156 1011.519531 1961.621094 1005.460938 1922.230469 1037.359375 "/>
<path fill-rule="evenodd" fill="rgb(99.609375%, 72.459412%, 60.351562%)" fill-opacity="1" d="M 1966.308594 1042.171875 C 1954.480469 1051.75 1952.660156 1069.101562 1962.238281 1080.929688 C 1971.820312 1092.75 1989.171875 1094.578125 2001 1085 C 2012.820312 1075.421875 2014.640625 1058.070312 2005.070312 1046.238281 C 1995.488281 1034.410156 1978.128906 1032.589844 1966.308594 1042.171875 "/>
<path fill-rule="evenodd" fill="rgb(99.609375%, 72.459412%, 60.351562%)" fill-opacity="1" d="M 1957.839844 1139.371094 C 1952.421875 1143.75 1951.589844 1151.699219 1955.980469 1157.121094 C 1960.359375 1162.53125 1968.308594 1163.371094 1973.730469 1158.980469 C 1979.140625 1154.589844 1979.980469 1146.648438 1975.589844 1141.230469 C 1971.199219 1135.808594 1963.261719 1134.980469 1957.839844 1139.371094 "/>
<path fill-rule="evenodd" fill="rgb(87.5%, 43.920898%, 33.325195%)" fill-opacity="1" d="M 2281.261719 897.308594 C 2209.75 955.230469 2198.730469 1060.148438 2256.648438 1131.660156 C 2297.679688 1182.308594 2362.28125 1202.601562 2421.890625 1189.558594 L 2333.679688 868.609375 C 2315.121094 874.761719 2297.351562 884.28125 2281.261719 897.308594 "/>
<path fill-rule="evenodd" fill="rgb(99.609375%, 72.459412%, 60.351562%)" fill-opacity="1" d="M 2334.480469 926.929688 C 2322.660156 936.511719 2320.839844 953.859375 2330.410156 965.691406 C 2338.328125 975.449219 2351.539062 978.398438 2362.570312 973.730469 L 2348.078125 921.039062 C 2343.261719 921.691406 2338.539062 923.640625 2334.480469 926.929688 "/>
<path fill-rule="evenodd" fill="rgb(99.609375%, 72.459412%, 60.351562%)" fill-opacity="1" d="M 2278.398438 1061.039062 C 2266.570312 1070.621094 2264.75 1087.96875 2274.328125 1099.800781 C 2283.910156 1111.628906 2301.261719 1113.449219 2313.089844 1103.871094 C 2324.910156 1094.289062 2326.730469 1076.941406 2317.160156 1065.109375 C 2307.578125 1053.289062 2290.230469 1051.46875 2278.398438 1061.039062 "/>
<path fill-rule="evenodd" fill="rgb(99.609375%, 72.459412%, 60.351562%)" fill-opacity="1" d="M 2383.128906 1087.050781 C 2377.710938 1091.441406 2376.878906 1099.390625 2381.261719 1104.808594 C 2385.648438 1110.21875 2393.601562 1111.058594 2399.019531 1106.671875 L 2399.089844 1106.609375 L 2392.980469 1084.378906 C 2389.589844 1083.871094 2386 1084.730469 2383.128906 1087.050781 "/>
<path fill-rule="evenodd" fill="rgb(87.5%, 43.920898%, 33.325195%)" fill-opacity="1" d="M 2216.449219 1369.019531 C 2203.191406 1379.769531 2193.710938 1393.449219 2188.179688 1408.371094 L 2350.03125 1492.109375 C 2372.320312 1459.488281 2371.679688 1414.859375 2345.539062 1382.578125 C 2313.640625 1343.191406 2255.839844 1337.121094 2216.449219 1369.019531 "/>
<path fill-rule="evenodd" fill="rgb(99.609375%, 72.459412%, 60.351562%)" fill-opacity="1" d="M 2260.53125 1373.828125 C 2248.710938 1383.410156 2246.878906 1400.761719 2256.460938 1412.589844 C 2266.039062 1424.421875 2283.390625 1426.238281 2295.21875 1416.660156 C 2307.050781 1407.078125 2308.871094 1389.730469 2299.289062 1377.898438 C 2289.710938 1366.078125 2272.359375 1364.25 2260.53125 1373.828125 "/>
<path fill-rule="evenodd" fill="rgb(82.421875%, 52.146912%, 25.488281%)" fill-opacity="1" d="M 2194.859375 2465.199219 C 2054.078125 2510.160156 1919.109375 2581.5 1797.351562 2680.121094 C 1675.578125 2778.738281 1577.761719 2895.941406 1504.539062 3024.316406 C 1497.761719 3036.210938 1496.28125 3048.945312 1500.160156 3062.078125 C 1504.050781 3075.210938 1512.210938 3085.09375 1524.378906 3091.390625 L 1657.539062 3160.292969 C 1679.441406 3171.617188 1706 3164.90625 1719.878906 3144.53125 C 1785.511719 3048.210938 1866.089844 2959.710938 1961.328125 2882.570312 C 2056.558594 2805.441406 2159.871094 2745 2267.71875 2700.820312 C 2290.53125 2691.46875 2302.621094 2666.878906 2296.089844 2643.109375 L 2256.351562 2498.53125 C 2252.71875 2485.328125 2244.75 2475.289062 2232.710938 2468.761719 C 2220.671875 2462.238281 2207.910156 2461.03125 2194.859375 2465.199219 "/>
<path fill-rule="evenodd" fill="rgb(100%, 78.125%, 34.521484%)" fill-opacity="1" d="M 2284.441406 2689.46875 L 2500.171875 3474.363281 C 2505.601562 3494.136719 2499.191406 3514.078125 2483.261719 3526.984375 C 2467.320312 3539.890625 2446.480469 3542.015625 2428.269531 3532.59375 L 1705.308594 3158.527344 C 1710.929688 3155.039062 1715.929688 3150.34375 1719.878906 3144.53125 C 1785.511719 3048.210938 1866.089844 2959.710938 1961.328125 2882.570312 C 2056.558594 2805.441406 2159.871094 2745 2267.71875 2700.820312 C 2274.230469 2698.148438 2279.859375 2694.238281 2284.441406 2689.46875 "/>
<path fill-rule="evenodd" fill="rgb(87.5%, 43.920898%, 33.325195%)" fill-opacity="1" d="M 1922.230469 3037.359375 C 1882.839844 3069.265625 1876.769531 3127.058594 1908.671875 3166.445312 C 1940.578125 3205.835938 1998.371094 3211.90625 2037.761719 3180.003906 C 2077.148438 3148.101562 2083.21875 3090.304688 2051.320312 3050.914062 C 2019.410156 3011.523438 1961.621094 3005.453125 1922.230469 3037.359375 "/>
<path fill-rule="evenodd" fill="rgb(99.609375%, 72.459412%, 60.351562%)" fill-opacity="1" d="M 1966.308594 3042.171875 C 1954.480469 3051.746094 1952.660156 3069.101562 1962.238281 3080.925781 C 1971.820312 3092.753906 1989.171875 3094.578125 2001 3084.996094 C 2012.820312 3075.417969 2014.640625 3058.066406 2005.070312 3046.238281 C 1995.488281 3034.410156 1978.128906 3032.589844 1966.308594 3042.171875 "/>
<path fill-rule="evenodd" fill="rgb(99.609375%, 72.459412%, 60.351562%)" fill-opacity="1" d="M 1957.839844 3139.367188 C 1952.421875 3143.753906 1951.589844 3151.703125 1955.980469 3157.117188 C 1960.359375 3162.535156 1968.308594 3163.367188 1973.730469 3158.984375 C 1979.140625 3154.59375 1979.980469 3146.648438 1975.589844 3141.226562 C 1971.199219 3135.8125 1963.261719 3134.976562 1957.839844 3139.367188 "/>
<path fill-rule="evenodd" fill="rgb(87.5%, 43.920898%, 33.325195%)" fill-opacity="1" d="M 2281.261719 2897.308594 C 2209.75 2955.230469 2198.730469 3060.152344 2256.648438 3131.660156 C 2297.679688 3182.3125 2362.28125 3202.601562 2421.890625 3189.554688 L 2333.679688 2868.609375 C 2315.121094 2874.761719 2297.351562 2884.28125 2281.261719 2897.308594 "/>
<path fill-rule="evenodd" fill="rgb(99.609375%, 72.459412%, 60.351562%)" fill-opacity="1" d="M 2334.480469 2926.929688 C 2322.660156 2936.511719 2320.839844 2953.859375 2330.410156 2965.691406 C 2338.328125 2975.449219 2351.539062 2978.398438 2362.570312 2973.730469 L 2348.078125 2921.039062 C 2343.261719 2921.691406 2338.539062 2923.640625 2334.480469 2926.929688 "/>
<path fill-rule="evenodd" fill="rgb(99.609375%, 72.459412%, 60.351562%)" fill-opacity="1" d="M 2278.398438 3061.042969 C 2266.570312 3070.621094 2264.75 3087.976562 2274.328125 3099.800781 C 2283.910156 3111.628906 2301.261719 3113.449219 2313.089844 3103.871094 C 2324.910156 3094.289062 2326.730469 3076.9375 2317.160156 3065.113281 C 2307.578125 3053.285156 2290.230469 3051.464844 2278.398438 3061.042969 "/>
<path fill-rule="evenodd" fill="rgb(99.609375%, 72.459412%, 60.351562%)" fill-opacity="1" d="M 2383.128906 3087.054688 C 2377.710938 3091.441406 2376.878906 3099.390625 2381.261719 3104.804688 C 2385.648438 3110.222656 2393.601562 3111.054688 2399.019531 3106.671875 L 2399.089844 3106.609375 L 2392.980469 3084.382812 C 2389.589844 3083.867188 2386 3084.726562 2383.128906 3087.054688 "/>
<path fill-rule="evenodd" fill="rgb(87.5%, 43.920898%, 33.325195%)" fill-opacity="1" d="M 2216.449219 3369.023438 C 2203.191406 3379.765625 2193.710938 3393.445312 2188.179688 3408.367188 L 2350.03125 3492.109375 C 2372.320312 3459.492188 2371.679688 3414.855469 2345.539062 3382.578125 C 2313.640625 3343.1875 2255.839844 3337.117188 2216.449219 3369.023438 "/>
<path fill-rule="evenodd" fill="rgb(99.609375%, 72.459412%, 60.351562%)" fill-opacity="1" d="M 2260.53125 3373.832031 C 2248.710938 3383.410156 2246.878906 3400.765625 2256.460938 3412.589844 C 2266.039062 3424.417969 2283.390625 3426.238281 2295.21875 3416.660156 C 2307.050781 3407.082031 2308.871094 3389.726562 2299.289062 3377.902344 C 2289.710938 3366.078125 2272.359375 3364.253906 2260.53125 3373.832031 "/>
<path fill-rule="evenodd" fill="rgb(82.421875%, 52.146912%, 25.488281%)" fill-opacity="1" d="M 4000.058594 546.648438 C 3929.539062 583.628906 3861.601562 628.070312 3797.351562 680.121094 C 3675.578125 778.738281 3577.769531 895.941406 3504.539062 1024.320312 C 3497.761719 1036.21875 3496.28125 1048.941406 3500.171875 1062.078125 C 3504.050781 1075.21875 3512.210938 1085.089844 3524.378906 1091.390625 L 3657.539062 1160.289062 C 3679.441406 1171.621094 3706 1164.898438 3719.878906 1144.53125 C 3785.511719 1048.210938 3866.089844 959.710938 3961.328125 882.578125 C 3974.089844 872.230469 3987.011719 862.191406 4000.058594 852.449219 L 4000.058594 546.648438 "/>
<path fill-rule="evenodd" fill="rgb(100%, 78.125%, 34.521484%)" fill-opacity="1" d="M 4000.058594 1311.03125 L 3705.308594 1158.53125 C 3710.929688 1155.039062 3715.929688 1150.339844 3719.878906 1144.53125 C 3785.511719 1048.210938 3866.089844 959.710938 3961.328125 882.578125 C 3974.089844 872.230469 3987.011719 862.191406 4000.058594 852.449219 L 4000.058594 1311.03125 "/>
<path fill-rule="evenodd" fill="rgb(87.5%, 43.920898%, 33.325195%)" fill-opacity="1" d="M 3922.230469 1037.359375 C 3882.839844 1069.261719 3876.769531 1127.058594 3908.671875 1166.449219 C 3931.351562 1194.449219 3967.121094 1205.609375 4000.058594 1198.261719 L 4000.058594 1019.121094 C 3973.648438 1013.21875 3944.890625 1019 3922.230469 1037.359375 "/>
<path fill-rule="evenodd" fill="rgb(99.609375%, 72.459412%, 60.351562%)" fill-opacity="1" d="M 3966.308594 1042.171875 C 3954.480469 1051.75 3952.660156 1069.101562 3962.238281 1080.929688 C 3971.570312 1092.449219 3988.269531 1094.46875 4000.058594 1085.71875 L 4000.058594 1041.441406 C 3990.199219 1034.121094 3976.289062 1034.089844 3966.308594 1042.171875 "/>
<path fill-rule="evenodd" fill="rgb(99.609375%, 72.459412%, 60.351562%)" fill-opacity="1" d="M 3957.839844 1139.371094 C 3952.421875 1143.75 3951.589844 1151.699219 3955.980469 1157.121094 C 3960.359375 1162.53125 3968.308594 1163.371094 3973.730469 1158.980469 C 3979.140625 1154.589844 3979.980469 1146.648438 3975.589844 1141.230469 C 3971.210938 1135.808594 3963.261719 1134.980469 3957.839844 1139.371094 "/>
<path fill-rule="evenodd" fill="rgb(82.421875%, 52.146912%, 25.488281%)" fill-opacity="1" d="M 4000.058594 2546.648438 C 3929.53125 2583.628906 3861.601562 2628.070312 3797.339844 2680.121094 C 3675.578125 2778.738281 3577.761719 2895.941406 3504.539062 3024.316406 C 3497.75 3036.210938 3496.28125 3048.945312 3500.160156 3062.078125 C 3504.039062 3075.210938 3512.210938 3085.09375 3524.371094 3091.390625 L 3657.539062 3160.292969 C 3679.429688 3171.617188 3706 3164.90625 3719.878906 3144.53125 C 3785.511719 3048.210938 3866.089844 2959.710938 3961.320312 2882.570312 C 3974.089844 2872.230469 3987.011719 2862.191406 4000.058594 2852.449219 L 4000.058594 2546.648438 "/>
<path fill-rule="evenodd" fill="rgb(100%, 78.125%, 34.521484%)" fill-opacity="1" d="M 4000.058594 3311.03125 L 3705.308594 3158.527344 C 3710.929688 3155.039062 3715.921875 3150.34375 3719.878906 3144.53125 C 3785.511719 3048.210938 3866.089844 2959.710938 3961.320312 2882.570312 C 3974.089844 2872.230469 3987.011719 2862.191406 4000.058594 2852.449219 L 4000.058594 3311.03125 "/>
<path fill-rule="evenodd" fill="rgb(87.5%, 43.920898%, 33.325195%)" fill-opacity="1" d="M 3922.230469 3037.359375 C 3882.828125 3069.265625 3876.761719 3127.058594 3908.671875 3166.445312 C 3931.351562 3194.453125 3967.121094 3205.609375 4000.058594 3198.257812 L 4000.058594 3019.121094 C 3973.640625 3013.21875 3944.890625 3019.003906 3922.230469 3037.359375 "/>
<path fill-rule="evenodd" fill="rgb(99.609375%, 72.459412%, 60.351562%)" fill-opacity="1" d="M 3966.308594 3042.171875 C 3954.480469 3051.746094 3952.660156 3069.101562 3962.230469 3080.925781 C 3971.570312 3092.445312 3988.269531 3094.472656 4000.058594 3085.71875 L 4000.058594 3041.4375 C 3990.199219 3034.121094 3976.28125 3034.085938 3966.308594 3042.171875 "/>
<path fill-rule="evenodd" fill="rgb(99.609375%, 72.459412%, 60.351562%)" fill-opacity="1" d="M 3957.839844 3139.367188 C 3952.421875 3143.753906 3951.578125 3151.703125 3955.96875 3157.117188 C 3960.359375 3162.535156 3968.308594 3163.367188 3973.730469 3158.984375 C 3979.140625 3154.59375 3979.980469 3146.648438 3975.589844 3141.226562 C 3971.199219 3135.8125 3963.25 3134.976562 3957.839844 3139.367188 "/>
<path fill-rule="evenodd" fill="rgb(82.421875%, 52.146912%, 25.488281%)" fill-opacity="1" d="M 194.867188 465.199219 C 128.371094 486.441406 63.179688 513.550781 0.0664062 546.648438 L 0.0664062 852.449219 C 84.351562 789.53125 174.335938 739.078125 267.726562 700.820312 C 290.539062 691.46875 302.625 666.878906 296.089844 643.109375 L 256.355469 498.53125 C 252.726562 485.328125 244.757812 475.289062 232.714844 468.761719 C 220.671875 462.238281 207.914062 461.03125 194.867188 465.199219 "/>
<path fill-rule="evenodd" fill="rgb(100%, 78.125%, 34.521484%)" fill-opacity="1" d="M 284.445312 689.46875 L 500.167969 1474.359375 C 505.601562 1494.140625 499.195312 1514.078125 483.257812 1526.988281 C 467.324219 1539.890625 446.488281 1542.019531 428.273438 1532.589844 L 0.0664062 1311.03125 L 0.0664062 852.449219 C 84.351562 789.53125 174.335938 739.078125 267.726562 700.820312 C 274.230469 698.148438 279.867188 694.238281 284.445312 689.46875 "/>
<path fill-rule="evenodd" fill="rgb(87.5%, 43.920898%, 33.325195%)" fill-opacity="1" d="M 0.0664062 1198.261719 C 13.457031 1195.269531 26.378906 1189.21875 37.761719 1180 C 77.152344 1148.101562 83.222656 1090.300781 51.320312 1050.921875 C 37.773438 1034.191406 19.554688 1023.480469 0.0664062 1019.121094 L 0.0664062 1198.261719 "/>
<path fill-rule="evenodd" fill="rgb(99.609375%, 72.459412%, 60.351562%)" fill-opacity="1" d="M 0.0664062 1085.71875 C 0.378906 1085.488281 0.691406 1085.25 1 1085 C 12.824219 1075.421875 14.648438 1058.070312 5.070312 1046.238281 C 3.574219 1044.390625 1.886719 1042.789062 0.0664062 1041.441406 L 0.0664062 1085.71875 "/>
<path fill-rule="evenodd" fill="rgb(87.5%, 43.920898%, 33.325195%)" fill-opacity="1" d="M 281.261719 897.308594 C 209.757812 955.230469 198.738281 1060.148438 256.652344 1131.660156 C 297.679688 1182.308594 362.28125 1202.601562 421.890625 1189.558594 L 333.679688 868.609375 C 315.128906 874.761719 297.351562 884.28125 281.261719 897.308594 "/>
<path fill-rule="evenodd" fill="rgb(99.609375%, 72.459412%, 60.351562%)" fill-opacity="1" d="M 334.488281 926.929688 C 322.660156 936.511719 320.839844 953.859375 330.417969 965.691406 C 338.332031 975.449219 351.542969 978.398438 362.570312 973.730469 L 348.089844 921.039062 C 343.261719 921.691406 338.550781 923.640625 334.488281 926.929688 "/>
<path fill-rule="evenodd" fill="rgb(99.609375%, 72.459412%, 60.351562%)" fill-opacity="1" d="M 278.402344 1061.039062 C 266.574219 1070.621094 264.753906 1087.96875 274.332031 1099.800781 C 283.910156 1111.628906 301.261719 1113.449219 313.089844 1103.871094 C 324.914062 1094.289062 326.738281 1076.941406 317.160156 1065.109375 C 307.582031 1053.289062 290.226562 1051.46875 278.402344 1061.039062 "/>
<path fill-rule="evenodd" fill="rgb(99.609375%, 72.459412%, 60.351562%)" fill-opacity="1" d="M 383.132812 1087.050781 C 377.714844 1091.441406 376.882812 1099.390625 381.269531 1104.808594 C 385.652344 1110.21875 393.601562 1111.058594 399.019531 1106.671875 L 399.09375 1106.609375 L 392.984375 1084.378906 C 389.597656 1083.871094 386.007812 1084.730469 383.132812 1087.050781 "/>
<path fill-rule="evenodd" fill="rgb(87.5%, 43.920898%, 33.325195%)" fill-opacity="1" d="M 216.457031 1369.019531 C 203.191406 1379.769531 193.714844 1393.449219 188.179688 1408.371094 L 350.03125 1492.109375 C 372.324219 1459.488281 371.6875 1414.859375 345.542969 1382.578125 C 313.640625 1343.191406 255.847656 1337.121094 216.457031 1369.019531 "/>
<path fill-rule="evenodd" fill="rgb(99.609375%, 72.459412%, 60.351562%)" fill-opacity="1" d="M 260.539062 1373.828125 C 248.710938 1383.410156 246.886719 1400.761719 256.464844 1412.589844 C 266.042969 1424.421875 283.398438 1426.238281 295.226562 1416.660156 C 307.050781 1407.078125 308.871094 1389.730469 299.292969 1377.898438 C 289.714844 1366.078125 272.363281 1364.25 260.539062 1373.828125 "/>
<path fill-rule="evenodd" fill="rgb(82.421875%, 52.146912%, 25.488281%)" fill-opacity="1" d="M 194.863281 2465.199219 C 128.371094 2486.429688 63.179688 2513.550781 0.0585938 2546.648438 L 0.0585938 2852.449219 C 84.347656 2789.53125 174.332031 2739.078125 267.722656 2700.820312 C 290.535156 2691.46875 302.621094 2666.878906 296.089844 2643.109375 L 256.351562 2498.53125 C 252.722656 2485.328125 244.753906 2475.289062 232.714844 2468.761719 C 220.667969 2462.238281 207.910156 2461.03125 194.863281 2465.199219 "/>
<path fill-rule="evenodd" fill="rgb(100%, 78.125%, 34.521484%)" fill-opacity="1" d="M 284.441406 2689.46875 L 500.164062 3474.363281 C 505.601562 3494.136719 499.195312 3514.078125 483.257812 3526.984375 C 467.320312 3539.890625 446.484375 3542.015625 428.269531 3532.59375 L 0.0585938 3311.03125 L 0.0585938 2852.449219 C 84.347656 2789.53125 174.332031 2739.078125 267.722656 2700.820312 C 274.226562 2698.148438 279.863281 2694.238281 284.441406 2689.46875 "/>
<path fill-rule="evenodd" fill="rgb(87.5%, 43.920898%, 33.325195%)" fill-opacity="1" d="M 0.0585938 3198.257812 C 13.449219 3195.265625 26.375 3189.226562 37.757812 3180.003906 C 77.148438 3148.101562 83.21875 3090.304688 51.316406 3050.914062 C 37.769531 3034.1875 19.554688 3023.476562 0.0585938 3019.121094 L 0.0585938 3198.257812 "/>
<path fill-rule="evenodd" fill="rgb(99.609375%, 72.459412%, 60.351562%)" fill-opacity="1" d="M 0.0585938 3085.71875 C 0.378906 3085.484375 0.6875 3085.246094 0.996094 3084.996094 C 12.820312 3075.417969 14.644531 3058.066406 5.066406 3046.238281 C 3.570312 3044.390625 1.882812 3042.789062 0.0585938 3041.4375 L 0.0585938 3085.71875 "/>
<path fill-rule="evenodd" fill="rgb(87.5%, 43.920898%, 33.325195%)" fill-opacity="1" d="M 281.257812 2897.308594 C 209.753906 2955.230469 198.734375 3060.152344 256.652344 3131.660156 C 297.675781 3182.3125 362.277344 3202.601562 421.886719 3189.554688 L 333.675781 2868.609375 C 315.125 2874.761719 297.347656 2884.28125 281.257812 2897.308594 "/>
<path fill-rule="evenodd" fill="rgb(99.609375%, 72.459412%, 60.351562%)" fill-opacity="1" d="M 334.484375 2926.929688 C 322.660156 2936.511719 320.839844 2953.859375 330.414062 2965.691406 C 338.324219 2975.449219 351.539062 2978.398438 362.566406 2973.730469 L 348.089844 2921.039062 C 343.257812 2921.691406 338.542969 2923.640625 334.484375 2926.929688 "/>
<path fill-rule="evenodd" fill="rgb(99.609375%, 72.459412%, 60.351562%)" fill-opacity="1" d="M 278.398438 3061.042969 C 266.570312 3070.621094 264.75 3087.976562 274.328125 3099.800781 C 283.910156 3111.628906 301.257812 3113.449219 313.089844 3103.871094 C 324.914062 3094.289062 326.734375 3076.9375 317.15625 3065.113281 C 307.578125 3053.285156 290.226562 3051.464844 278.398438 3061.042969 "/>
<path fill-rule="evenodd" fill="rgb(99.609375%, 72.459412%, 60.351562%)" fill-opacity="1" d="M 383.128906 3087.054688 C 377.714844 3091.441406 376.878906 3099.390625 381.261719 3104.804688 C 385.652344 3110.222656 393.601562 3111.054688 399.015625 3106.671875 L 399.089844 3106.609375 L 392.980469 3084.382812 C 389.589844 3083.867188 386.003906 3084.726562 383.128906 3087.054688 "/>
<path fill-rule="evenodd" fill="rgb(87.5%, 43.920898%, 33.325195%)" fill-opacity="1" d="M 216.449219 3369.023438 C 203.1875 3379.765625 193.710938 3393.445312 188.179688 3408.367188 L 350.027344 3492.109375 C 372.320312 3459.492188 371.683594 3414.855469 345.539062 3382.578125 C 313.636719 3343.1875 255.839844 3337.117188 216.449219 3369.023438 "/>
<path fill-rule="evenodd" fill="rgb(99.609375%, 72.459412%, 60.351562%)" fill-opacity="1" d="M 260.535156 3373.832031 C 248.707031 3383.410156 246.882812 3400.765625 256.464844 3412.589844 C 266.039062 3424.417969 283.394531 3426.238281 295.222656 3416.660156 C 307.046875 3407.082031 308.867188 3389.726562 299.289062 3377.902344 C 289.714844 3366.078125 272.359375 3364.253906 260.535156 3373.832031 "/>
</svg>
